<?xml version="1.0" encoding="utf-8"?>
<!-- Generator: Adobe Illustrator 24.3.0, SVG Export Plug-In . SVG Version: 6.00 Build 0)  -->
<svg version="1.1" id="Layer_1" xmlns="http://www.w3.org/2000/svg" xmlns:xlink="http://www.w3.org/1999/xlink" x="0px" y="0px"
	 viewBox="0 0 180 180" enable-background="new 0 0 180 180" xml:space="preserve">
<g>
	<path id="XMLID_2088_" fill="#ADEBF6" d="M153.612,90c0,35.133-28.48,63.613-63.613,63.613c-35.131,0-63.611-28.48-63.611-63.613
		s28.48-63.613,63.611-63.613C125.133,26.387,153.612,54.867,153.612,90z"/>
	<g id="XMLID_1743_">
		<path id="XMLID_2080_" fill="#88D0D8" d="M83.364,70.23l1.457-0.342l-0.721-3.076l-1.457,0.344
			c-0.496-1.131-1.217-2.117-2.096-2.916l0.789-1.274l-2.685-1.666l-0.788,1.273c-0.871-0.34-1.804-0.541-2.765-0.582
			c-0.246-0.012-0.498-0.012-0.75,0c-0.01,0-0.021,0.002-0.03,0.002l-0.34-1.459l-3.075,0.721l0.342,1.459
			c-0.297,0.129-0.585,0.275-0.859,0.435c-0.778,0.447-1.469,1.01-2.059,1.658l-1.273-0.787l-1.662,2.684l1.27,0.787
			c-0.432,1.109-0.638,2.312-0.58,3.545l-1.457,0.344l0.722,3.074l1.456-0.342c0.496,1.131,1.215,2.117,2.096,2.918l-0.788,1.271
			l2.683,1.666l0.791-1.274c1.107,0.434,2.311,0.639,3.545,0.58l0.341,1.459l3.073-0.721L78.2,78.557
			c0.299-0.133,0.587-0.277,0.863-0.438c0.774-0.447,1.466-1.012,2.055-1.658l1.273,0.787l1.664-2.684l-1.271-0.789
			C83.216,72.668,83.423,71.465,83.364,70.23z M77.927,76.162c-0.531,0.309-1.117,0.545-1.746,0.691
			c-3.434,0.805-6.871-1.326-7.678-4.76c-0.656-2.807,0.645-5.613,3.016-6.986c0.531-0.309,1.117-0.545,1.746-0.691
			c0.363-0.084,0.724-0.137,1.084-0.158c0.252-0.016,0.504-0.016,0.75-0.002c2.749,0.162,5.183,2.102,5.844,4.922
			C81.6,71.982,80.298,74.787,77.927,76.162z"/>
		<path id="XMLID_2076_" fill="#88D0D8" d="M119.595,108.494l0.955-0.223l-0.473-2.018l-0.954,0.227
			c-0.325-0.742-0.797-1.387-1.372-1.91l0.516-0.834l-1.758-1.092l-0.518,0.834c-0.57-0.223-1.181-0.354-1.81-0.381
			c-0.162-0.006-0.327-0.006-0.491,0c-0.007,0-0.014,0-0.021,0l-0.223-0.955l-2.013,0.473l0.223,0.957
			c-0.193,0.084-0.383,0.18-0.562,0.283c-0.51,0.295-0.963,0.662-1.349,1.088l-0.833-0.516l-1.09,1.758l0.832,0.516
			c-0.283,0.725-0.418,1.514-0.38,2.32l-0.954,0.225l0.473,2.014l0.954-0.223c0.325,0.74,0.796,1.387,1.372,1.91l-0.517,0.832
			l1.757,1.092l0.518-0.834c0.727,0.285,1.514,0.418,2.322,0.381l0.224,0.955l2.014-0.473l-0.224-0.953
			c0.194-0.088,0.383-0.182,0.563-0.285c0.508-0.295,0.961-0.664,1.347-1.09l0.834,0.518l1.09-1.758l-0.832-0.518
			C119.497,110.09,119.633,109.301,119.595,108.494z M116.033,112.379c-0.349,0.201-0.731,0.355-1.143,0.451
			c-2.249,0.529-4.501-0.867-5.028-3.117c-0.431-1.838,0.422-3.674,1.975-4.576c0.348-0.199,0.731-0.354,1.145-0.451
			c0.236-0.057,0.473-0.09,0.709-0.104c0.164-0.012,0.329-0.012,0.491,0c1.8,0.105,3.396,1.375,3.827,3.223
			C118.438,109.641,117.587,111.479,116.033,112.379z"/>
		<path id="XMLID_2072_" fill="#88D0D8" d="M74.571,118.348l0.954-0.225l-0.473-2.014l-0.954,0.225
			c-0.324-0.74-0.797-1.387-1.372-1.91l0.517-0.834l-1.758-1.09l-0.518,0.834c-0.57-0.223-1.182-0.355-1.81-0.383
			c-0.163-0.008-0.327-0.008-0.492,0c-0.007,0-0.014,0.002-0.019,0.002l-0.225-0.955l-2.014,0.473l0.225,0.955
			c-0.194,0.084-0.383,0.18-0.563,0.285c-0.509,0.293-0.962,0.662-1.348,1.086l-0.834-0.516l-1.09,1.758l0.833,0.516
			c-0.283,0.727-0.418,1.514-0.38,2.322l-0.954,0.223l0.471,2.016l0.955-0.225c0.325,0.74,0.797,1.387,1.373,1.91l-0.518,0.834
			l1.758,1.092l0.518-0.836c0.726,0.283,1.514,0.42,2.322,0.381l0.224,0.955l2.013-0.473l-0.224-0.953
			c0.195-0.086,0.384-0.182,0.564-0.285c0.509-0.295,0.96-0.664,1.347-1.088l0.834,0.517l1.09-1.76l-0.833-0.516
			C74.474,119.945,74.609,119.156,74.571,118.348z M71.011,122.234c-0.348,0.199-0.732,0.355-1.145,0.451
			c-2.249,0.527-4.5-0.869-5.028-3.117c-0.431-1.838,0.423-3.676,1.975-4.576c0.349-0.203,0.732-0.357,1.144-0.453
			c0.238-0.055,0.475-0.09,0.71-0.104c0.165-0.01,0.329-0.01,0.492,0c1.8,0.104,3.394,1.377,3.827,3.223
			C73.415,119.496,72.563,121.332,71.011,122.234z"/>
		<path id="XMLID_2068_" fill="#88D0D8" d="M111.634,119.354l0.639,0.012l0.025-1.348l-0.64-0.012
			c-0.087-0.521-0.282-1.006-0.562-1.428l0.461-0.445l-0.937-0.973l-0.46,0.445c-0.326-0.232-0.691-0.414-1.084-0.531
			c-0.102-0.031-0.205-0.059-0.311-0.082c-0.004,0-0.009,0-0.013,0l0.013-0.641l-1.35-0.025l-0.012,0.641
			c-0.137,0.021-0.272,0.053-0.402,0.09c-0.369,0.104-0.713,0.264-1.026,0.471l-0.444-0.461l-0.971,0.938l0.443,0.459
			c-0.295,0.412-0.508,0.891-0.613,1.408l-0.639-0.014l-0.026,1.352l0.64,0.01c0.086,0.521,0.279,1.006,0.561,1.43l-0.461,0.443
			l0.937,0.971l0.462-0.443c0.412,0.297,0.889,0.508,1.406,0.615l-0.012,0.639l1.348,0.025l0.012-0.641
			c0.138-0.021,0.272-0.053,0.403-0.09c0.368-0.104,0.714-0.266,1.026-0.471l0.443,0.461l0.973-0.938l-0.444-0.459
			C111.315,120.348,111.526,119.871,111.634,119.354z M108.757,121.238c-0.252,0.072-0.519,0.107-0.796,0.102
			c-1.507-0.027-2.705-1.271-2.678-2.777c0.022-1.232,0.857-2.256,1.983-2.576c0.252-0.072,0.52-0.107,0.796-0.101
			c0.159,0.002,0.313,0.019,0.466,0.047c0.105,0.02,0.21,0.047,0.311,0.08c1.121,0.354,1.924,1.414,1.901,2.65
			C110.718,119.895,109.884,120.918,108.757,121.238z"/>
		<path id="XMLID_2064_" fill="#88D0D8" d="M109.686,70.361l1.339-0.314l-0.662-2.824l-1.339,0.312
			c-0.455-1.037-1.117-1.943-1.926-2.678l0.725-1.17l-2.465-1.529l-0.726,1.17c-0.801-0.314-1.657-0.498-2.539-0.535
			c-0.228-0.012-0.459-0.012-0.69,0c-0.008,0-0.02,0.002-0.027,0.002l-0.312-1.342l-2.824,0.662l0.313,1.34
			c-0.272,0.119-0.536,0.254-0.79,0.4c-0.715,0.414-1.35,0.93-1.891,1.525l-1.17-0.725l-1.528,2.467l1.168,0.723
			c-0.396,1.02-0.587,2.123-0.532,3.256l-1.34,0.316l0.662,2.824l1.34-0.314c0.455,1.039,1.115,1.945,1.925,2.682l-0.725,1.168
			l2.465,1.529l0.726-1.17c1.018,0.4,2.124,0.588,3.257,0.533l0.313,1.342l2.824-0.664l-0.313-1.338
			c0.274-0.121,0.538-0.254,0.792-0.4c0.713-0.414,1.347-0.93,1.889-1.525l1.17,0.725l1.527-2.467l-1.168-0.725
			C109.55,72.6,109.74,71.494,109.686,70.361z M104.691,75.811c-0.488,0.283-1.026,0.5-1.604,0.635
			c-3.155,0.74-6.314-1.219-7.054-4.373c-0.604-2.578,0.592-5.156,2.77-6.418c0.488-0.283,1.027-0.5,1.604-0.635
			c0.333-0.078,0.664-0.127,0.995-0.145c0.231-0.016,0.463-0.016,0.69-0.004c2.526,0.15,4.761,1.932,5.368,4.521
			C108.065,71.971,106.87,74.547,104.691,75.811z"/>
		<path id="XMLID_2060_" fill="#88D0D8" d="M96.575,58.781l0.732-0.172l-0.361-1.545l-0.733,0.172
			c-0.249-0.568-0.61-1.064-1.053-1.465l0.396-0.641l-1.35-0.836l-0.395,0.639c-0.439-0.17-0.908-0.271-1.391-0.293
			c-0.125-0.006-0.25-0.006-0.377,0c-0.005,0-0.011,0.002-0.016,0.002l-0.17-0.734l-1.547,0.363l0.173,0.732
			c-0.149,0.065-0.294,0.139-0.433,0.219c-0.391,0.227-0.737,0.508-1.033,0.834l-0.641-0.397l-0.836,1.348l0.639,0.398
			c-0.217,0.557-0.32,1.16-0.291,1.779l-0.732,0.174l0.362,1.545l0.732-0.172c0.249,0.568,0.609,1.066,1.053,1.467l-0.396,0.639
			l1.349,0.838l0.397-0.641c0.558,0.219,1.162,0.322,1.782,0.293l0.173,0.733l1.543-0.363l-0.17-0.73
			c0.148-0.068,0.293-0.141,0.432-0.219c0.391-0.227,0.737-0.51,1.034-0.836l0.64,0.396l0.836-1.348l-0.639-0.398
			C96.501,60.006,96.604,59.4,96.575,58.781z M93.843,61.762c-0.268,0.156-0.562,0.275-0.878,0.35
			c-1.725,0.404-3.454-0.668-3.858-2.395c-0.33-1.41,0.324-2.818,1.516-3.512c0.267-0.154,0.562-0.271,0.877-0.346
			c0.184-0.043,0.363-0.068,0.545-0.08c0.127-0.008,0.252-0.008,0.377,0c1.382,0.08,2.606,1.055,2.938,2.473
			C95.688,59.662,95.034,61.072,93.843,61.762z"/>
		<g id="XMLID_2026_">
			<g>
				<g id="XMLID_88_">
					<path id="XMLID_89_" fill="#ADEBF6" d="M83.563,94.256l-1.669-0.523c-0.423-0.133-0.823-0.598-0.896-1.035
						c0,0-0.052-0.334-0.197-0.902c-0.152-0.561-0.27-0.881-0.27-0.881c-0.146-0.41-0.029-1.014,0.277-1.334l1.201-1.283
						c0.3-0.32,0.364-0.902,0.146-1.281l-0.773-1.201c-0.255-0.365-0.809-0.539-1.223-0.4l-0.547,0.182l-1.108,0.379
						c-0.424,0.137-1.033,0.006-1.354-0.299l-0.757-0.619l-0.664-0.547c-0.365-0.256-0.612-0.824-0.553-1.268l0.218-1.727
						c0.058-0.445-0.226-0.953-0.634-1.131l-1.332-0.524c-0.424-0.139-0.978,0.037-1.232,0.395l-1.013,1.428
						c-0.255,0.363-0.823,0.611-1.26,0.553l-0.22-0.014l-1.631-0.094c-0.438,0.006-0.969-0.307-1.181-0.693l-0.103-0.189
						l-0.734-1.348c-0.219-0.387-0.744-0.641-1.188-0.561c0,0-0.205,0.043-0.692,0.174c-0.503,0.133-0.692,0.191-0.692,0.191
						c-0.422,0.145-0.758,0.625-0.75,1.062l0.015,1.748c0.007,0.438-0.306,0.984-0.692,1.193l-1.559,1
						c-0.357,0.254-0.969,0.318-1.377,0.131l-1.574-0.742c-0.399-0.191-0.969-0.074-1.267,0.254l-0.911,1.107
						c-0.27,0.357-0.262,0.939,0,1.295l1.041,1.4c0.262,0.355,0.328,0.969,0.139,1.377l-0.67,1.711
						c-0.131,0.424-0.597,0.832-1.026,0.918l-1.728,0.328c-0.43,0.08-0.83,0.512-0.866,0.947l-0.095,1.43
						c0,0.436,0.342,0.908,0.764,1.041l1.669,0.524c0.423,0.131,0.823,0.598,0.896,1.035c0,0,0.058,0.342,0.196,0.904
						c0.153,0.566,0.271,0.889,0.271,0.889c0.151,0.406,0.036,1.01-0.271,1.338l-1.202,1.275c-0.306,0.322-0.371,0.896-0.153,1.275
						l0.773,1.209c0.255,0.357,0.809,0.533,1.23,0.4l1.654-0.561c0.422-0.146,1.027-0.006,1.348,0.291l1.428,1.166
						c0.357,0.262,0.611,0.83,0.554,1.268l-0.226,1.727c-0.051,0.445,0.226,0.953,0.633,1.137l1.341,0.517
						c0.415,0.146,0.969-0.037,1.231-0.4l1.005-1.422c0.255-0.363,0.831-0.611,1.268-0.545l1.843,0.102
						c0.444,0,0.977,0.305,1.188,0.699l0.846,1.529c0.204,0.387,0.735,0.635,1.172,0.561c0,0,0.205-0.035,0.701-0.168
						c0.501-0.129,0.691-0.195,0.691-0.195c0.416-0.146,0.75-0.627,0.75-1.064l-0.014-1.74c-0.008-0.451,0.305-0.984,0.691-1.203
						l1.552-0.99c0.356-0.262,0.976-0.32,1.377-0.139l1.58,0.744c0.401,0.188,0.969,0.08,1.269-0.256l0.909-1.107
						c0.263-0.357,0.255-0.934-0.007-1.289l-1.041-1.398c-0.262-0.357-0.321-0.977-0.131-1.385l0.662-1.711
						c0.139-0.418,0.598-0.832,1.035-0.912l1.719-0.328c0.437-0.078,0.83-0.51,0.873-0.945l0.088-1.436
						C84.327,94.863,83.985,94.389,83.563,94.256z M70.552,103.873c-4.859,1.273-9.827-1.641-11.095-6.498
						c-1.268-4.852,1.632-9.82,6.491-11.086c2.775-0.73,5.58-0.09,7.715,1.492c0.246,0.18,0.48,0.379,0.698,0.59
						c0.212,0.182,0.416,0.379,0.599,0.59c0.211,0.225,0.4,0.451,0.59,0.707c0.677,0.904,1.187,1.951,1.493,3.109
						C78.31,97.637,75.403,102.605,70.552,103.873z"/>
				</g>
				<g id="XMLID_83_">
					<path id="XMLID_84_" fill="#ADEBF6" d="M74.508,93.447c-0.175-0.697-0.466-1.332-0.838-1.906
						c-0.495-0.766-1.143-1.4-1.888-1.881c-1.471-0.961-3.336-1.334-5.171-0.844c-3.468,0.9-5.537,4.434-4.626,7.912
						c0.902,3.457,4.436,5.535,7.911,4.631C73.356,100.449,75.418,96.908,74.508,93.447z M68.848,97.338
						c-1.253,0.32-2.536-0.416-2.856-1.66c-0.327-1.26,0.423-2.529,1.676-2.855c0.328-0.088,0.678-0.104,0.99-0.037
						c0.867,0.152,1.604,0.801,1.851,1.713c0.015,0.057,0.029,0.117,0.029,0.174C70.763,95.852,70.027,97.025,68.848,97.338z"/>
				</g>
			</g>
			<g>
				<g id="XMLID_78_">
					<path id="XMLID_79_" fill="#88D0D8" d="M83.563,94.256l-1.669-0.523c-0.423-0.133-0.823-0.598-0.896-1.035
						c0,0-0.052-0.334-0.197-0.902c-0.152-0.561-0.27-0.881-0.27-0.881c-0.146-0.41-0.029-1.014,0.277-1.334l1.201-1.283
						c0.3-0.32,0.364-0.902,0.146-1.281l-0.773-1.201c-0.255-0.365-0.809-0.539-1.223-0.4l-0.547,0.182l-1.108,0.379
						c-0.424,0.137-1.033,0.006-1.354-0.299l-0.757-0.619l-0.664-0.547c-0.365-0.256-0.612-0.824-0.553-1.268l0.218-1.727
						c0.058-0.445-0.226-0.953-0.634-1.131l-1.332-0.524c-0.424-0.139-0.978,0.037-1.232,0.395l-1.013,1.428
						c-0.255,0.363-0.823,0.611-1.26,0.553l-0.22-0.014l-1.631-0.094c-0.438,0.006-0.969-0.307-1.181-0.693l-0.103-0.189
						l-0.734-1.348c-0.219-0.387-0.744-0.641-1.188-0.561c0,0-0.205,0.043-0.692,0.174c-0.503,0.133-0.692,0.191-0.692,0.191
						c-0.422,0.145-0.758,0.625-0.75,1.062l0.015,1.748c0.007,0.438-0.306,0.984-0.692,1.193l-1.559,1
						c-0.357,0.254-0.969,0.318-1.377,0.131l-1.574-0.742c-0.399-0.191-0.969-0.074-1.267,0.254l-0.911,1.107
						c-0.27,0.357-0.262,0.939,0,1.295l1.041,1.4c0.262,0.355,0.328,0.969,0.139,1.377l-0.67,1.711
						c-0.131,0.424-0.597,0.832-1.026,0.918l-1.728,0.328c-0.43,0.08-0.83,0.512-0.866,0.947l-0.095,1.43
						c0,0.436,0.342,0.908,0.764,1.041l1.669,0.524c0.423,0.131,0.823,0.598,0.896,1.035c0,0,0.058,0.342,0.196,0.904
						c0.153,0.566,0.271,0.889,0.271,0.889c0.151,0.406,0.036,1.01-0.271,1.338l-1.202,1.275c-0.306,0.322-0.371,0.896-0.153,1.275
						l0.773,1.209c0.255,0.357,0.809,0.533,1.23,0.4l1.654-0.561c0.422-0.146,1.027-0.006,1.348,0.291l1.428,1.166
						c0.357,0.262,0.611,0.83,0.554,1.268l-0.226,1.727c-0.051,0.445,0.226,0.953,0.633,1.137l1.341,0.517
						c0.415,0.146,0.969-0.037,1.231-0.4l1.005-1.422c0.255-0.363,0.831-0.611,1.268-0.545l1.843,0.102
						c0.444,0,0.977,0.305,1.188,0.699l0.846,1.529c0.204,0.387,0.735,0.635,1.172,0.561c0,0,0.205-0.035,0.701-0.168
						c0.501-0.129,0.691-0.195,0.691-0.195c0.416-0.146,0.75-0.627,0.75-1.064l-0.014-1.74c-0.008-0.451,0.305-0.984,0.691-1.203
						l1.552-0.99c0.356-0.262,0.976-0.32,1.377-0.139l1.58,0.744c0.401,0.188,0.969,0.08,1.269-0.256l0.909-1.107
						c0.263-0.357,0.255-0.934-0.007-1.289l-1.041-1.398c-0.262-0.357-0.321-0.977-0.131-1.385l0.662-1.711
						c0.139-0.418,0.598-0.832,1.035-0.912l1.719-0.328c0.437-0.078,0.83-0.51,0.873-0.945l0.088-1.436
						C84.327,94.863,83.985,94.389,83.563,94.256z M70.552,103.873c-4.859,1.273-9.827-1.641-11.095-6.498
						c-1.268-4.852,1.632-9.82,6.491-11.086c2.775-0.73,5.58-0.09,7.715,1.492c0.246,0.18,0.48,0.379,0.698,0.59
						c0.212,0.182,0.416,0.379,0.599,0.59c0.211,0.225,0.4,0.451,0.59,0.707c0.677,0.904,1.187,1.951,1.493,3.109
						C78.31,97.637,75.403,102.605,70.552,103.873z"/>
				</g>
				<g id="XMLID_73_">
					<path id="XMLID_74_" fill="#88D0D8" d="M74.508,93.447c-0.175-0.697-0.466-1.332-0.838-1.906
						c-0.495-0.766-1.143-1.4-1.888-1.881c-1.471-0.961-3.336-1.334-5.171-0.844c-3.468,0.9-5.537,4.434-4.626,7.912
						c0.902,3.457,4.436,5.535,7.911,4.631C73.356,100.449,75.418,96.908,74.508,93.447z M68.848,97.338
						c-1.253,0.32-2.536-0.416-2.856-1.66c-0.327-1.26,0.423-2.529,1.676-2.855c0.328-0.088,0.678-0.104,0.99-0.037
						c0.867,0.152,1.604,0.801,1.851,1.713c0.015,0.057,0.029,0.117,0.029,0.174C70.763,95.852,70.027,97.025,68.848,97.338z"/>
				</g>
			</g>
		</g>
		<path id="XMLID_2015_" fill="#88D0D8" d="M120.478,92.686l0.962-0.336c-0.014-0.311-0.035-0.621-0.066-0.928l-1-0.191
			c-0.026-0.18-0.057-0.365-0.093-0.547l0.882-0.504c-0.066-0.303-0.146-0.604-0.236-0.898l-1.015-0.008
			c-0.06-0.176-0.12-0.35-0.189-0.521l0.772-0.654c-0.119-0.287-0.256-0.566-0.395-0.842l-1.002,0.18
			c-0.09-0.16-0.185-0.318-0.283-0.475l0.642-0.791c-0.169-0.258-0.354-0.506-0.546-0.75l-0.945,0.363
			c-0.118-0.143-0.238-0.283-0.369-0.42l0.484-0.891c-0.217-0.219-0.438-0.436-0.674-0.639l-0.867,0.533
			c-0.14-0.121-0.287-0.234-0.436-0.346l0.311-0.965c-0.123-0.09-0.252-0.18-0.381-0.264c-0.131-0.084-0.266-0.166-0.4-0.242
			l-0.75,0.682c-0.163-0.092-0.33-0.18-0.495-0.262l0.133-1.006c-0.284-0.129-0.573-0.246-0.858-0.352l-0.616,0.807
			c-0.177-0.061-0.356-0.115-0.534-0.166l-0.056-1.01c-0.303-0.076-0.605-0.141-0.911-0.191l-0.457,0.91
			c-0.172-0.027-0.345-0.045-0.515-0.059c-0.013-0.002-0.023-0.004-0.036-0.004l-0.242-0.984c-0.093-0.008-0.184-0.012-0.271-0.014
			c-0.103-0.004-0.205-0.008-0.309-0.008c-0.117-0.002-0.234-0.002-0.351,0l-0.197,0.695l-0.084,0.283
			c-0.182,0.006-0.369,0.02-0.554,0.039l-0.419-0.924c-0.309,0.039-0.615,0.09-0.92,0.152l-0.097,1.012
			c-0.179,0.041-0.36,0.09-0.538,0.143l-0.584-0.834c-0.295,0.096-0.584,0.203-0.871,0.318l0.088,1.014
			c-0.172,0.074-0.338,0.152-0.501,0.236l-0.728-0.713c-0.272,0.148-0.539,0.307-0.798,0.475l0.272,0.977
			c-0.152,0.105-0.301,0.213-0.448,0.328l-0.847-0.566c-0.237,0.195-0.469,0.399-0.697,0.613l0.449,0.912
			c-0.129,0.129-0.258,0.262-0.381,0.402l-0.936-0.398c-0.196,0.234-0.393,0.475-0.574,0.73l0.611,0.812
			c-0.053,0.076-0.106,0.152-0.156,0.23c-0.048,0.076-0.1,0.158-0.146,0.236l-0.993-0.225c-0.155,0.271-0.296,0.549-0.429,0.824
			l0.746,0.689c-0.075,0.17-0.146,0.34-0.213,0.514l-1.016-0.035c-0.1,0.293-0.193,0.588-0.272,0.887l0.863,0.537
			c-0.043,0.182-0.082,0.365-0.113,0.547l-1.006,0.15c-0.043,0.307-0.082,0.613-0.101,0.922l0.945,0.369
			c-0.008,0.186-0.013,0.369-0.011,0.557l-0.957,0.334c0.009,0.311,0.027,0.621,0.065,0.928l0.997,0.189
			c0.025,0.184,0.056,0.367,0.091,0.549l-0.881,0.506c0.066,0.301,0.145,0.6,0.238,0.898l1.018,0.004
			c0.055,0.176,0.119,0.35,0.188,0.521l-0.776,0.658c0.119,0.285,0.255,0.562,0.396,0.84l1-0.184
			c0.092,0.164,0.185,0.32,0.283,0.477l-0.642,0.793c0.169,0.256,0.357,0.506,0.546,0.75l0.951-0.365
			c0.115,0.145,0.234,0.283,0.361,0.42l-0.482,0.893c0.214,0.221,0.441,0.434,0.674,0.641l0.867-0.533
			c0.139,0.117,0.287,0.23,0.436,0.344l-0.311,0.965c0.125,0.088,0.252,0.178,0.385,0.262c0.129,0.086,0.262,0.166,0.395,0.244
			l0.754-0.682c0.166,0.092,0.328,0.178,0.493,0.26l-0.13,1.008c0.285,0.131,0.568,0.246,0.858,0.35l0.615-0.805
			c0.177,0.061,0.356,0.111,0.532,0.164l0.057,1.01c0.305,0.078,0.604,0.141,0.909,0.193l0.457-0.912
			c0.185,0.029,0.368,0.051,0.553,0.064l0.241,0.984c0.313,0.018,0.623,0.029,0.932,0.023l0.283-0.979
			c0.183-0.01,0.367-0.023,0.552-0.041l0.421,0.926c0.307-0.041,0.613-0.094,0.918-0.156l0.097-1.008
			c0.183-0.043,0.361-0.09,0.54-0.145l0.583,0.834c0.296-0.094,0.583-0.203,0.873-0.32l-0.091-1.012
			c0.172-0.074,0.338-0.152,0.506-0.238l0.725,0.713c0.271-0.145,0.537-0.307,0.796-0.475l-0.272-0.976
			c0.152-0.104,0.303-0.211,0.451-0.326l0.843,0.564c0.239-0.195,0.474-0.398,0.698-0.611l-0.448-0.908
			c0.133-0.133,0.257-0.268,0.382-0.404l0.931,0.396c0.202-0.234,0.395-0.477,0.577-0.73l-0.609-0.812
			c0.051-0.078,0.104-0.154,0.154-0.232c0.053-0.078,0.1-0.154,0.146-0.234l0.994,0.223c0.154-0.271,0.296-0.549,0.429-0.824
			l-0.747-0.686c0.074-0.172,0.146-0.342,0.21-0.516l1.019,0.035c0.1-0.293,0.189-0.59,0.271-0.887l-0.86-0.539
			c0.04-0.18,0.079-0.363,0.112-0.545l1.002-0.15c0.047-0.309,0.084-0.615,0.107-0.922l-0.949-0.371
			C120.476,93.055,120.48,92.869,120.478,92.686z M115.056,85.213c1.779,1.289,2.979,3.111,3.518,5.1l-5.958,1.279
			c-0.183-0.479-0.476-0.91-0.87-1.262L115.056,85.213z M109.167,83.455c0.285-0.016,0.568-0.016,0.857,0
			c1.439,0.064,2.877,0.463,4.201,1.221l-3.312,5.121c-0.483-0.219-0.997-0.309-1.503-0.279l-1.281-5.959
			C108.472,83.506,108.819,83.469,109.167,83.455z M107.162,83.768l1.282,5.957c-0.436,0.166-0.84,0.426-1.18,0.775
			c-0.027,0.029-0.056,0.062-0.085,0.094l-5.114-3.309C103.352,85.504,105.173,84.307,107.162,83.768z M101.526,88.115l5.114,3.307
			c-0.212,0.479-0.303,0.996-0.274,1.51l-5.955,1.277C100.087,92.172,100.432,90.02,101.526,88.115z M104.134,100.271
			c-1.779-1.289-2.978-3.105-3.516-5.096l5.954-1.275c0.167,0.428,0.425,0.832,0.774,1.17c0.032,0.031,0.066,0.059,0.098,0.086
			L104.134,100.271z M104.965,100.811l3.312-5.117c0.268,0.121,0.556,0.209,0.848,0.252c0.221,0.031,0.439,0.037,0.656,0.025
			l1.279,5.957C109.022,102.254,106.875,101.906,104.965,100.811z M112.027,101.721l-1.282-5.959
			c0.482-0.182,0.918-0.479,1.262-0.867l5.117,3.311C115.837,99.986,114.015,101.184,112.027,101.721z M117.66,97.373l-5.116-3.309
			c0.219-0.486,0.308-1.002,0.277-1.508l5.957-1.275C119.102,93.318,118.759,95.467,117.66,97.373z"/>
		<g id="XMLID_2006_">
			<g id="XMLID_2013_">
				<path id="XMLID_2014_" fill="#363F4A" d="M120.656,110.459h-5.651c-0.177,0-0.32-0.145-0.32-0.32c0-0.178,0.144-0.32,0.32-0.32
					h5.651c0.178,0,0.32,0.143,0.32,0.32C120.977,110.314,120.834,110.459,120.656,110.459z"/>
			</g>
			<g id="XMLID_2011_">
				<path id="XMLID_2012_" fill="#363F4A" d="M122.526,112.861h-1.915c-0.177,0-0.319-0.142-0.319-0.32
					c0-0.176,0.143-0.32,0.319-0.32h1.915c0.177,0,0.32,0.145,0.32,0.32C122.847,112.719,122.703,112.861,122.526,112.861z"/>
			</g>
			<g id="XMLID_2009_">
				<path id="XMLID_2010_" fill="#363F4A" d="M125.931,112.861h-1.915c-0.177,0-0.32-0.142-0.32-0.32c0-0.176,0.144-0.32,0.32-0.32
					h1.915c0.177,0,0.32,0.145,0.32,0.32C126.251,112.719,126.107,112.861,125.931,112.861z"/>
			</g>
			<g id="XMLID_2007_">
				<path id="XMLID_2008_" fill="#363F4A" d="M121.568,113.818c-0.177,0-0.319-0.143-0.319-0.318v-1.916
					c0-0.176,0.143-0.32,0.319-0.32c0.177,0,0.321,0.145,0.321,0.32v1.916C121.89,113.676,121.745,113.818,121.568,113.818z"/>
			</g>
		</g>
		<g id="XMLID_1987_">
			<g id="XMLID_1996_">
				<g id="XMLID_2004_">
					<path id="XMLID_2005_" fill="#363F4A" d="M68.269,95.443h-0.744c-0.164,0-0.297-0.133-0.297-0.295
						c0-0.166,0.133-0.301,0.297-0.301h0.744c0.163,0,0.296,0.135,0.296,0.301C68.564,95.311,68.432,95.443,68.269,95.443z"/>
				</g>
				<g id="XMLID_1999_">
					<path id="XMLID_2000_" fill="#363F4A" d="M66.171,95.443h-1.352c-0.165,0-0.299-0.133-0.299-0.295
						c0-0.166,0.134-0.301,0.299-0.301h1.352c0.164,0,0.299,0.135,0.299,0.301C66.47,95.311,66.335,95.443,66.171,95.443z
						 M63.466,95.443h-1.353c-0.164,0-0.297-0.133-0.297-0.295c0-0.166,0.133-0.301,0.297-0.301h1.353
						c0.164,0,0.297,0.135,0.297,0.301C63.763,95.311,63.63,95.443,63.466,95.443z M60.76,95.443h-1.353
						c-0.164,0-0.297-0.133-0.297-0.295c0-0.166,0.133-0.301,0.297-0.301h1.353c0.163,0,0.298,0.135,0.298,0.301
						C61.058,95.311,60.923,95.443,60.76,95.443z"/>
				</g>
				<g id="XMLID_1997_">
					<path id="XMLID_1998_" fill="#363F4A" d="M58.054,95.443H57.31c-0.164,0-0.297-0.133-0.297-0.295
						c0-0.166,0.133-0.301,0.297-0.301h0.744c0.165,0,0.298,0.135,0.298,0.301C58.352,95.311,58.219,95.443,58.054,95.443z"/>
				</g>
			</g>
			<g id="XMLID_1994_">
				<path id="XMLID_1995_" fill="#363F4A" d="M59.211,93.76h-5.247c-0.164,0-0.298-0.133-0.298-0.297s0.134-0.299,0.298-0.299h5.247
					c0.163,0,0.298,0.135,0.298,0.299S59.374,93.76,59.211,93.76z"/>
			</g>
			<g id="XMLID_1992_">
				<path id="XMLID_1993_" fill="#363F4A" d="M54.006,91.529h-1.778c-0.164,0-0.297-0.135-0.297-0.299
					c0-0.162,0.133-0.297,0.297-0.297h1.778c0.163,0,0.298,0.135,0.298,0.297C54.304,91.395,54.169,91.529,54.006,91.529z"/>
			</g>
			<g id="XMLID_1990_">
				<path id="XMLID_1991_" fill="#363F4A" d="M50.845,91.529h-1.776c-0.165,0-0.298-0.135-0.298-0.299
					c0-0.162,0.133-0.297,0.298-0.297h1.776c0.165,0,0.298,0.135,0.298,0.297C51.143,91.395,51.01,91.529,50.845,91.529z"/>
			</g>
			<g id="XMLID_1988_">
				<path id="XMLID_1989_" fill="#363F4A" d="M53.117,92.418c-0.164,0-0.298-0.135-0.298-0.297v-1.779
					c0-0.164,0.134-0.295,0.298-0.295c0.164,0,0.298,0.131,0.298,0.295v1.779C53.415,92.283,53.281,92.418,53.117,92.418z"/>
			</g>
		</g>
		<g id="XMLID_1971_">
			<g id="XMLID_1985_">
				<path id="XMLID_1986_" fill="#FFFFFF" d="M102.011,81.465c1.246-2.092,1.975-4.527,1.975-7.141
					c0-7.723-6.26-13.986-13.986-13.986c-7.724,0-13.984,6.264-13.984,13.986c0,2.613,0.729,5.049,1.975,7.141h-0.053
					c5.736,8.889,5.141,12.965,5.141,12.965h6.922h6.924c0,0-0.598-4.076,5.139-12.965H102.011z"/>
			</g>
			<g id="XMLID_1975_">
				<g id="XMLID_1983_">
					<polygon id="XMLID_1984_" fill="#565656" points="89.999,94.604 83.077,94.604 83.077,98.18 84.544,100.732 89.999,100.732 
						95.456,100.732 96.923,98.18 96.923,94.604 					"/>
				</g>
				<g id="XMLID_1976_">
					<g id="XMLID_1981_">
						<path id="XMLID_1982_" fill="#333333" d="M97.659,94.119c0,0.328-0.251,0.598-0.564,0.598H82.905
							c-0.313,0-0.565-0.269-0.565-0.598l0,0c0-0.328,0.252-0.598,0.565-0.598h14.189C97.408,93.521,97.659,93.791,97.659,94.119
							L97.659,94.119z"/>
					</g>
					<g id="XMLID_1979_">
						<path id="XMLID_1980_" fill="#333333" d="M97.659,96.289c0,0.328-0.251,0.596-0.564,0.596H82.905
							c-0.313,0-0.565-0.268-0.565-0.596l0,0c0-0.33,0.252-0.598,0.565-0.598h14.189C97.408,95.691,97.659,95.959,97.659,96.289
							L97.659,96.289z"/>
					</g>
					<g id="XMLID_1977_">
						<path id="XMLID_1978_" fill="#333333" d="M96.298,98.84c0,0.271-0.21,0.49-0.465,0.49H84.17c-0.258,0-0.464-0.219-0.464-0.49
							l0,0c0-0.27,0.206-0.49,0.464-0.49h11.663C96.088,98.35,96.298,98.57,96.298,98.84L96.298,98.84z"/>
					</g>
				</g>
			</g>
			<g id="XMLID_1972_">
				<path id="XMLID_1974_" fill="#333333" d="M92.729,85.373v10.979h0.6V85.373c0.291-0.117,0.497-0.404,0.497-0.736
					c0-0.441-0.358-0.797-0.798-0.797c-0.439,0-0.796,0.355-0.796,0.797C92.232,84.969,92.438,85.256,92.729,85.373z"/>
				<path id="XMLID_1973_" fill="#333333" d="M86.672,85.373v10.979h0.601V85.373c0.291-0.117,0.496-0.404,0.496-0.736
					c0-0.441-0.357-0.797-0.797-0.797c-0.439,0-0.796,0.355-0.796,0.797C86.176,84.969,86.381,85.256,86.672,85.373z"/>
			</g>
		</g>
		<g id="XMLID_1948_">
			<g id="XMLID_1969_">
				<path id="XMLID_1970_" fill="#333333" d="M73.22,84.584c0.082,0,0.164,0.029,0.227,0.092c0.126,0.125,0.126,0.328,0,0.453
					l-5.632,5.633c-0.126,0.125-0.329,0.125-0.454,0s-0.125-0.328,0-0.453l5.632-5.633C73.055,84.613,73.138,84.584,73.22,84.584z"
					/>
			</g>
			<g id="XMLID_1967_">
				<path id="XMLID_1968_" fill="#333333" d="M89.948,43.58c0.178,0,0.321,0.145,0.321,0.324v7.963c0,0.178-0.144,0.32-0.321,0.32
					c-0.178,0-0.322-0.143-0.322-0.32v-7.963C89.626,43.725,89.77,43.58,89.948,43.58z"/>
			</g>
			<g id="XMLID_1965_">
				<path id="XMLID_1966_" fill="#333333" d="M69.837,76.885c0.15,0,0.283,0.103,0.315,0.256c0.037,0.172-0.074,0.344-0.248,0.379
					l-7.795,1.637c-0.175,0.037-0.345-0.074-0.381-0.248c-0.036-0.174,0.074-0.344,0.249-0.381l7.794-1.637
					C69.793,76.887,69.815,76.885,69.837,76.885z"/>
			</g>
			<g id="XMLID_1963_">
				<path id="XMLID_1964_" fill="#333333" d="M67.588,54.242c0.082,0,0.165,0.031,0.226,0.094l5.632,5.633
					c0.126,0.125,0.126,0.328,0,0.455c-0.125,0.125-0.328,0.125-0.454,0l-5.632-5.635c-0.125-0.125-0.125-0.328,0-0.453
					C67.423,54.273,67.507,54.242,67.588,54.242z"/>
			</g>
			<g id="XMLID_1961_">
				<path id="XMLID_1962_" fill="#333333" d="M76.827,47.123c0.114,0,0.223,0.059,0.282,0.166l3.858,6.969
					c0.086,0.154,0.029,0.35-0.125,0.436c-0.156,0.086-0.352,0.029-0.437-0.125L76.548,47.6c-0.086-0.154-0.03-0.352,0.125-0.438
					C76.722,47.135,76.775,47.123,76.827,47.123z"/>
			</g>
			<g id="XMLID_1959_">
				<path id="XMLID_1960_" fill="#333333" d="M103.677,47.123c0.053,0,0.107,0.012,0.155,0.039c0.155,0.086,0.212,0.283,0.126,0.438
					l-3.859,6.969c-0.084,0.154-0.28,0.211-0.436,0.125c-0.155-0.086-0.211-0.281-0.125-0.436l3.857-6.969
					C103.454,47.182,103.563,47.123,103.677,47.123z"/>
			</g>
			<g id="XMLID_1957_">
				<path id="XMLID_1958_" fill="#333333" d="M62.042,65.934c0.021,0,0.043,0.002,0.066,0.008l7.795,1.637
					c0.174,0.035,0.285,0.207,0.248,0.379c-0.037,0.174-0.206,0.287-0.381,0.25l-7.794-1.639c-0.175-0.033-0.285-0.205-0.249-0.377
					C61.759,66.037,61.893,65.934,62.042,65.934z"/>
			</g>
			<g id="XMLID_1955_">
				<path id="XMLID_1956_" fill="#333333" d="M106.78,84.584c0.082,0,0.165,0.029,0.228,0.092l5.631,5.633
					c0.126,0.125,0.126,0.328,0,0.453c-0.125,0.125-0.329,0.125-0.455,0l-5.631-5.633c-0.125-0.125-0.125-0.328,0-0.453
					C106.616,84.613,106.698,84.584,106.78,84.584z"/>
			</g>
			<g id="XMLID_1953_">
				<path id="XMLID_1954_" fill="#333333" d="M110.163,76.885c0.021,0,0.045,0.002,0.066,0.006l7.795,1.637
					c0.174,0.037,0.285,0.207,0.249,0.381c-0.037,0.174-0.208,0.285-0.382,0.248l-7.795-1.637c-0.172-0.035-0.284-0.207-0.248-0.379
					C109.881,76.988,110.015,76.885,110.163,76.885z"/>
			</g>
			<g id="XMLID_1951_">
				<path id="XMLID_1952_" fill="#333333" d="M112.413,54.242c0.082,0,0.164,0.031,0.227,0.094c0.126,0.125,0.126,0.328,0,0.453
					l-5.631,5.635c-0.126,0.125-0.33,0.125-0.455,0c-0.125-0.127-0.125-0.33,0-0.455l5.631-5.633
					C112.249,54.273,112.331,54.242,112.413,54.242z"/>
			</g>
			<g id="XMLID_1949_">
				<path id="XMLID_1950_" fill="#333333" d="M117.958,65.934c0.15,0,0.283,0.104,0.315,0.258c0.036,0.172-0.075,0.344-0.249,0.377
					l-7.795,1.639c-0.174,0.035-0.344-0.076-0.381-0.25c-0.036-0.172,0.076-0.344,0.248-0.379l7.795-1.637
					C117.914,65.936,117.936,65.934,117.958,65.934z"/>
			</g>
		</g>
		<path id="XMLID_1947_" fill="#333333" d="M116.124,148.018c-7.971,3.594-16.814,5.596-26.125,5.596
			c-5.446,0-10.734-0.686-15.781-1.977c3.957-4.322,11.711-10.195,11.83-12.658c0.153-3.189-1.512-9.355-9.427-8.621
			c-7.913,0.73-8.574-6.783-7.677-7.68c1.291-1.291,0-2.031,0-2.031s-1.418-0.756-1.418-1.371c0-0.613,0.851-1.465,0.851-1.465
			c-1.797,0-1.465-1.795-1.465-1.795s0.896-3.072-1.465-3.072c-2.363,0-2.269-2.125-2.032-3.023c0.236-0.898,3.732-6.852,4.394-8.08
			c0.662-1.229-1.322-2.361-1.984-4.252c-0.07-0.197-0.119-0.453-0.15-0.744h48.714c-0.05,7.191-4.087,12.717-4.087,12.717
			s-4.662,4.535-4.662,10.33c0,5.797-0.363,12.109,5.67,18.145C114.112,140.836,115.474,144.67,116.124,148.018z"/>
		<g id="XMLID_1809_">
			<path id="XMLID_1946_" fill="#FF916E" d="M97.702,66.947c-0.102-1.682-1.307-3.117-2.984-3.486
				c-0.746-0.164-1.53-0.1-2.234,0.184c-0.522-0.553-1.203-0.941-1.951-1.105c-0.271-0.061-0.547-0.09-0.823-0.09
				c-0.819,0-1.617,0.266-2.274,0.754c-0.091-0.027-0.184-0.051-0.277-0.072c-0.271-0.059-0.549-0.09-0.823-0.09
				c-1.774,0-3.34,1.26-3.722,2.994c-0.033,0.15-0.059,0.305-0.072,0.461c-1.33,0.389-2.352,1.467-2.655,2.842
				c-0.219,0.994-0.038,2.014,0.511,2.873c0.549,0.857,1.398,1.453,2.393,1.67c0.441,0.1,0.898,0.117,1.342,0.055
				c0.541,0.885,1.408,1.508,2.433,1.734c0.634,0.141,1.294,0.113,1.906-0.068c-0.054,0.809,0.149,1.607,0.593,2.303
				c0.549,0.859,1.398,1.453,2.393,1.674c0.271,0.059,0.549,0.088,0.824,0.088c0.998,0,1.949-0.391,2.659-1.082
				c0.081,0.021,0.163,0.043,0.245,0.061c0.27,0.061,0.548,0.09,0.822,0.09l0,0c1.774,0,3.34-1.258,3.722-2.994
				c0.208-0.94,0.05-1.916-0.431-2.74c0.403-0.473,0.684-1.037,0.819-1.65C100.532,69.457,99.485,67.594,97.702,66.947z"/>
			<path id="XMLID_1935_" fill="#FFFFFF" d="M92.343,65.986l0.23-0.08c-0.003-0.074-0.009-0.146-0.017-0.221l-0.238-0.047
				c-0.007-0.041-0.014-0.086-0.021-0.129l0.21-0.121c-0.017-0.072-0.035-0.143-0.057-0.215h-0.241
				c-0.016-0.045-0.029-0.086-0.047-0.127l0.186-0.156c-0.028-0.068-0.061-0.135-0.094-0.199l-0.24,0.043
				c-0.021-0.039-0.043-0.076-0.068-0.113l0.154-0.189c-0.041-0.062-0.084-0.121-0.131-0.18l-0.227,0.086
				c-0.027-0.033-0.056-0.066-0.087-0.1l0.116-0.213c-0.052-0.051-0.105-0.103-0.162-0.15L91.401,64
				c-0.033-0.027-0.068-0.057-0.104-0.08l0.074-0.232c-0.029-0.02-0.061-0.041-0.091-0.062c-0.032-0.02-0.063-0.039-0.096-0.057
				l-0.179,0.162c-0.039-0.021-0.08-0.043-0.119-0.062l0.032-0.24c-0.067-0.031-0.137-0.061-0.206-0.084l-0.146,0.191
				c-0.042-0.012-0.085-0.027-0.128-0.039l-0.014-0.24c-0.072-0.018-0.145-0.033-0.217-0.047l-0.109,0.217
				c-0.041-0.006-0.082-0.01-0.123-0.014c-0.003,0-0.006,0-0.009,0l-0.058-0.236c-0.021,0-0.043-0.002-0.064-0.002
				c-0.024,0-0.049,0-0.074,0c-0.027-0.002-0.057-0.002-0.084,0l-0.047,0.164l-0.02,0.066c-0.045,0.002-0.089,0.006-0.133,0.01
				l-0.1-0.219c-0.074,0.008-0.146,0.02-0.219,0.035l-0.024,0.24c-0.043,0.012-0.085,0.024-0.128,0.035l-0.141-0.199
				c-0.07,0.023-0.139,0.049-0.207,0.076l0.021,0.242c-0.042,0.018-0.081,0.035-0.121,0.057l-0.173-0.17
				c-0.065,0.035-0.128,0.072-0.19,0.113l0.064,0.232c-0.035,0.025-0.07,0.053-0.106,0.078l-0.202-0.135
				c-0.057,0.045-0.112,0.096-0.166,0.146l0.108,0.217c-0.031,0.031-0.063,0.064-0.092,0.098l-0.224-0.096
				c-0.047,0.057-0.093,0.115-0.138,0.174l0.146,0.195c-0.012,0.018-0.024,0.035-0.037,0.055c-0.011,0.018-0.023,0.037-0.035,0.055
				l-0.236-0.051c-0.037,0.064-0.071,0.129-0.104,0.195l0.18,0.164c-0.018,0.041-0.035,0.08-0.051,0.123l-0.243-0.008
				c-0.024,0.068-0.046,0.141-0.066,0.211l0.207,0.129c-0.01,0.043-0.02,0.086-0.027,0.131l-0.24,0.035
				c-0.01,0.072-0.02,0.146-0.025,0.219l0.227,0.09c-0.002,0.043-0.003,0.088-0.002,0.133l-0.229,0.08
				c0.002,0.074,0.006,0.148,0.016,0.223l0.238,0.043c0.006,0.045,0.012,0.088,0.022,0.133l-0.211,0.119
				c0.016,0.072,0.035,0.143,0.058,0.215l0.242,0.002c0.014,0.041,0.029,0.082,0.046,0.123l-0.186,0.158
				c0.027,0.068,0.061,0.133,0.094,0.199l0.239-0.043c0.022,0.039,0.044,0.076,0.067,0.113L87.39,67.57
				c0.039,0.061,0.084,0.121,0.13,0.18l0.227-0.088c0.027,0.035,0.057,0.068,0.087,0.1l-0.115,0.213
				c0.051,0.053,0.105,0.104,0.16,0.154l0.208-0.127c0.033,0.027,0.067,0.055,0.104,0.08l-0.074,0.23
				c0.03,0.021,0.061,0.043,0.093,0.064c0.031,0.02,0.062,0.037,0.094,0.057l0.18-0.162c0.039,0.023,0.078,0.043,0.118,0.062
				l-0.032,0.24c0.069,0.033,0.137,0.059,0.205,0.084l0.148-0.191c0.041,0.014,0.084,0.025,0.127,0.039l0.014,0.24
				c0.072,0.02,0.143,0.033,0.217,0.047l0.109-0.219c0.043,0.006,0.086,0.014,0.131,0.016l0.058,0.236
				c0.075,0.002,0.149,0.006,0.224,0.004l0.066-0.232c0.044-0.002,0.088-0.006,0.132-0.01l0.101,0.221
				c0.073-0.01,0.146-0.023,0.22-0.037l0.022-0.24c0.044-0.012,0.086-0.024,0.129-0.035l0.139,0.199
				c0.072-0.021,0.141-0.049,0.209-0.078l-0.021-0.24c0.041-0.018,0.08-0.035,0.121-0.057l0.173,0.17
				c0.066-0.035,0.128-0.074,0.191-0.113l-0.066-0.232c0.037-0.025,0.072-0.051,0.107-0.08l0.203,0.137
				c0.057-0.047,0.112-0.096,0.166-0.146l-0.107-0.217c0.032-0.031,0.062-0.064,0.092-0.098l0.222,0.096
				c0.048-0.057,0.095-0.113,0.138-0.176l-0.146-0.193c0.013-0.018,0.024-0.037,0.036-0.055c0.013-0.02,0.024-0.035,0.036-0.055
				l0.237,0.051c0.037-0.064,0.07-0.129,0.102-0.195l-0.178-0.164c0.018-0.041,0.035-0.082,0.05-0.123l0.243,0.008
				c0.023-0.068,0.045-0.141,0.064-0.211l-0.205-0.129c0.01-0.043,0.02-0.088,0.027-0.131l0.239-0.035
				c0.011-0.072,0.019-0.146,0.025-0.219l-0.226-0.09C92.342,66.074,92.343,66.031,92.343,65.986z M91.048,64.203
				c0.424,0.309,0.711,0.742,0.84,1.217l-1.423,0.307c-0.043-0.115-0.113-0.219-0.207-0.303L91.048,64.203z M89.642,63.783
				c0.068-0.004,0.135-0.004,0.205,0c0.344,0.016,0.686,0.111,1.002,0.291l-0.79,1.223c-0.114-0.051-0.237-0.074-0.358-0.066
				l-0.307-1.422C89.476,63.795,89.559,63.787,89.642,63.783z M89.163,63.857l0.307,1.422c-0.104,0.039-0.201,0.102-0.282,0.186
				c-0.007,0.008-0.013,0.016-0.021,0.021l-1.221-0.789C88.253,64.271,88.688,63.984,89.163,63.857z M87.817,64.896l1.221,0.789
				c-0.051,0.115-0.072,0.238-0.064,0.359l-1.422,0.307C87.474,65.863,87.556,65.352,87.817,64.896z M88.44,67.797
				c-0.425-0.305-0.711-0.74-0.84-1.215l1.422-0.305c0.039,0.102,0.102,0.199,0.185,0.279c0.007,0.008,0.017,0.012,0.022,0.021
				L88.44,67.797z M88.639,67.926l0.79-1.221c0.064,0.029,0.133,0.049,0.203,0.059c0.053,0.008,0.105,0.01,0.156,0.008l0.307,1.422
				C89.606,68.271,89.095,68.188,88.639,67.926z M90.325,68.145l-0.307-1.422c0.115-0.045,0.219-0.117,0.301-0.207l1.223,0.789
				C91.234,67.73,90.799,68.016,90.325,68.145z M91.67,67.105l-1.222-0.789c0.053-0.117,0.072-0.24,0.066-0.359l1.422-0.307
				C92.015,66.137,91.933,66.65,91.67,67.105z"/>
			<path id="XMLID_1924_" fill="#FFFFFF" d="M84.761,68.961l0.103-0.035c-0.002-0.033-0.004-0.066-0.007-0.098l-0.105-0.021
				c-0.004-0.02-0.007-0.039-0.01-0.057l0.093-0.055c-0.007-0.031-0.015-0.062-0.026-0.096h-0.106
				c-0.007-0.02-0.013-0.037-0.02-0.055l0.082-0.068c-0.013-0.031-0.028-0.062-0.042-0.09l-0.107,0.02
				c-0.008-0.018-0.02-0.035-0.029-0.051l0.068-0.084c-0.018-0.027-0.037-0.053-0.059-0.078l-0.1,0.037
				c-0.012-0.014-0.025-0.029-0.039-0.045l0.051-0.094c-0.021-0.023-0.046-0.047-0.07-0.068l-0.092,0.057
				c-0.015-0.012-0.031-0.025-0.047-0.035l0.033-0.104c-0.014-0.008-0.026-0.018-0.04-0.027c-0.015-0.01-0.028-0.018-0.042-0.025
				l-0.08,0.072c-0.017-0.01-0.035-0.02-0.053-0.027l0.014-0.107c-0.029-0.014-0.061-0.027-0.09-0.037l-0.066,0.086
				c-0.018-0.006-0.037-0.014-0.056-0.018l-0.006-0.107c-0.032-0.008-0.063-0.016-0.097-0.02l-0.048,0.096
				c-0.019-0.002-0.037-0.004-0.055-0.006c0,0-0.003-0.002-0.004-0.002l-0.026-0.104c-0.009-0.002-0.019-0.002-0.028-0.002
				c-0.011,0-0.021,0-0.032,0c-0.013,0-0.024,0-0.038,0l-0.021,0.074l-0.009,0.029c-0.019,0-0.039,0.002-0.059,0.004l-0.044-0.098
				c-0.033,0.006-0.065,0.01-0.098,0.016l-0.011,0.107c-0.019,0.006-0.038,0.01-0.056,0.016l-0.062-0.088
				c-0.031,0.01-0.062,0.021-0.092,0.033l0.01,0.107c-0.02,0.008-0.036,0.016-0.054,0.023l-0.077-0.074
				c-0.029,0.016-0.058,0.033-0.084,0.051l0.027,0.104c-0.016,0.01-0.031,0.023-0.047,0.035l-0.09-0.061
				c-0.025,0.02-0.049,0.043-0.073,0.064l0.048,0.096c-0.015,0.014-0.027,0.029-0.041,0.043l-0.1-0.041
				c-0.02,0.025-0.041,0.049-0.061,0.076l0.066,0.086c-0.007,0.01-0.013,0.016-0.018,0.025c-0.006,0.008-0.01,0.016-0.016,0.025
				l-0.105-0.023c-0.016,0.027-0.03,0.057-0.045,0.086l0.079,0.074c-0.009,0.018-0.016,0.035-0.022,0.053l-0.107-0.004
				c-0.011,0.033-0.019,0.064-0.029,0.094l0.092,0.059c-0.005,0.02-0.009,0.037-0.012,0.057l-0.106,0.018
				c-0.005,0.033-0.009,0.065-0.011,0.098l0.1,0.037c0,0.021-0.001,0.041-0.001,0.059l-0.101,0.035c0,0.035,0.002,0.066,0.006,0.1
				l0.105,0.02c0.004,0.02,0.006,0.039,0.011,0.059l-0.095,0.053c0.008,0.033,0.016,0.065,0.025,0.096h0.108
				c0.005,0.02,0.013,0.039,0.021,0.057l-0.084,0.068c0.014,0.031,0.027,0.059,0.043,0.088l0.105-0.018
				c0.01,0.018,0.021,0.033,0.031,0.049l-0.068,0.084c0.018,0.027,0.037,0.055,0.058,0.082l0.101-0.039
				c0.012,0.014,0.025,0.029,0.039,0.043l-0.051,0.096c0.021,0.023,0.045,0.045,0.07,0.066l0.092-0.057
				c0.015,0.014,0.031,0.025,0.045,0.037l-0.031,0.102c0.014,0.01,0.026,0.02,0.041,0.029c0.014,0.008,0.026,0.018,0.041,0.025
				l0.08-0.072c0.018,0.01,0.035,0.018,0.052,0.027l-0.014,0.107c0.03,0.012,0.06,0.025,0.091,0.037l0.065-0.086
				c0.019,0.006,0.037,0.012,0.056,0.018l0.006,0.107c0.033,0.008,0.064,0.014,0.098,0.02l0.047-0.096
				c0.021,0.004,0.04,0.004,0.059,0.006l0.025,0.104c0.033,0.002,0.066,0.004,0.1,0.004l0.029-0.105c0.02,0,0.039-0.002,0.059-0.004
				l0.045,0.1c0.033-0.004,0.064-0.012,0.097-0.018l0.011-0.107c0.02-0.004,0.038-0.01,0.057-0.014l0.062,0.088
				c0.031-0.01,0.062-0.021,0.092-0.033l-0.009-0.107c0.017-0.01,0.035-0.018,0.053-0.027l0.077,0.076
				c0.027-0.014,0.057-0.031,0.084-0.049l-0.028-0.105c0.016-0.01,0.031-0.021,0.048-0.033l0.088,0.061
				c0.025-0.021,0.051-0.043,0.074-0.064l-0.047-0.098c0.014-0.014,0.026-0.029,0.041-0.043l0.098,0.043
				c0.021-0.025,0.041-0.051,0.061-0.078l-0.063-0.086c0.005-0.006,0.011-0.016,0.017-0.023c0.006-0.01,0.01-0.016,0.015-0.025
				l0.106,0.023c0.017-0.029,0.03-0.059,0.046-0.088l-0.08-0.072c0.009-0.018,0.016-0.035,0.023-0.055l0.107,0.004
				c0.01-0.031,0.021-0.062,0.029-0.094l-0.092-0.057c0.004-0.02,0.008-0.039,0.012-0.059l0.105-0.016
				c0.006-0.031,0.009-0.065,0.012-0.096l-0.1-0.041C84.761,69,84.761,68.98,84.761,68.961z M84.186,68.17
				c0.189,0.137,0.316,0.328,0.373,0.541l-0.631,0.135c-0.02-0.051-0.051-0.096-0.092-0.133L84.186,68.17z M83.563,67.984
				c0.03-0.002,0.061-0.002,0.091,0c0.153,0.006,0.305,0.049,0.445,0.129l-0.351,0.541c-0.051-0.021-0.105-0.033-0.16-0.027
				l-0.135-0.633C83.49,67.99,83.526,67.986,83.563,67.984z M83.352,68.018l0.136,0.629c-0.047,0.018-0.089,0.047-0.125,0.084
				c-0.002,0.002-0.005,0.006-0.01,0.01l-0.54-0.352C82.948,68.201,83.142,68.074,83.352,68.018z M82.755,68.477l0.541,0.352
				c-0.021,0.049-0.031,0.104-0.028,0.158l-0.63,0.137C82.602,68.906,82.64,68.68,82.755,68.477z M83.03,69.766
				c-0.188-0.139-0.315-0.33-0.371-0.541l0.629-0.135c0.02,0.045,0.046,0.088,0.083,0.125c0.003,0.002,0.007,0.004,0.01,0.008
				L83.03,69.766z M83.118,69.82l0.352-0.541c0.027,0.014,0.059,0.021,0.09,0.027c0.023,0.004,0.047,0.004,0.068,0.002l0.137,0.631
				C83.549,69.975,83.321,69.938,83.118,69.82z M83.866,69.916l-0.135-0.629c0.051-0.02,0.097-0.051,0.133-0.092l0.541,0.35
				C84.269,69.734,84.077,69.861,83.866,69.916z M84.462,69.457l-0.541-0.35c0.023-0.053,0.032-0.105,0.029-0.16l0.631-0.135
				C84.616,69.027,84.579,69.256,84.462,69.457z"/>
			<path id="XMLID_1913_" fill="#FFFFFF" d="M98.864,69.23l0.121-0.041c-0.002-0.041-0.004-0.078-0.008-0.119l-0.127-0.023
				c-0.003-0.021-0.007-0.045-0.012-0.068l0.111-0.062c-0.008-0.039-0.019-0.076-0.029-0.113l-0.129-0.002
				c-0.007-0.021-0.014-0.045-0.022-0.064l0.097-0.082c-0.015-0.037-0.032-0.074-0.05-0.107L98.69,68.57
				c-0.012-0.02-0.023-0.041-0.037-0.06l0.082-0.1c-0.021-0.033-0.045-0.064-0.068-0.096l-0.119,0.047
				c-0.015-0.017-0.03-0.035-0.047-0.053l0.062-0.111c-0.028-0.029-0.056-0.057-0.085-0.082l-0.109,0.066
				c-0.019-0.016-0.037-0.029-0.056-0.043l0.04-0.121c-0.016-0.012-0.032-0.021-0.049-0.033c-0.016-0.01-0.033-0.021-0.051-0.031
				l-0.094,0.086c-0.021-0.012-0.042-0.021-0.062-0.033l0.018-0.127c-0.036-0.016-0.072-0.029-0.109-0.045l-0.077,0.104
				c-0.022-0.008-0.045-0.014-0.067-0.021l-0.008-0.127c-0.037-0.01-0.075-0.018-0.113-0.023l-0.059,0.113
				c-0.021-0.002-0.043-0.006-0.064-0.008c-0.002,0-0.003,0-0.005,0l-0.03-0.123c-0.012-0.002-0.022-0.002-0.035-0.002
				c-0.012,0-0.025,0-0.037,0c-0.016,0-0.03,0-0.045,0l-0.025,0.086l-0.01,0.037c-0.023,0-0.048,0.002-0.07,0.004l-0.053-0.115
				c-0.039,0.002-0.078,0.012-0.116,0.018l-0.013,0.127c-0.021,0.006-0.045,0.014-0.067,0.02l-0.073-0.105
				c-0.037,0.012-0.073,0.025-0.109,0.041l0.011,0.127c-0.021,0.01-0.042,0.02-0.062,0.029l-0.093-0.09
				c-0.033,0.02-0.068,0.039-0.1,0.061l0.034,0.123c-0.019,0.012-0.038,0.027-0.057,0.041l-0.106-0.07
				c-0.03,0.023-0.06,0.049-0.088,0.076l0.057,0.115c-0.017,0.016-0.033,0.033-0.049,0.051l-0.117-0.051
				c-0.025,0.031-0.05,0.061-0.072,0.094l0.076,0.102c-0.006,0.01-0.013,0.02-0.02,0.029c-0.006,0.01-0.012,0.02-0.018,0.029
				l-0.126-0.027c-0.02,0.033-0.037,0.068-0.054,0.104l0.094,0.086c-0.01,0.021-0.018,0.043-0.027,0.064l-0.127-0.004
				c-0.014,0.037-0.025,0.074-0.035,0.111l0.109,0.068c-0.006,0.023-0.01,0.045-0.015,0.068l-0.126,0.02
				c-0.006,0.037-0.012,0.076-0.013,0.117l0.118,0.045c0,0.023-0.002,0.047-0.002,0.07l-0.119,0.043
				c0.001,0.037,0.004,0.078,0.009,0.115l0.125,0.025c0.003,0.021,0.007,0.047,0.011,0.068l-0.111,0.062
				c0.01,0.039,0.02,0.076,0.031,0.115h0.129c0.006,0.022,0.014,0.043,0.023,0.066l-0.1,0.082c0.017,0.035,0.033,0.07,0.051,0.105
				l0.127-0.023c0.011,0.021,0.023,0.041,0.035,0.06l-0.081,0.1c0.021,0.031,0.044,0.064,0.069,0.094l0.119-0.045
				c0.015,0.02,0.029,0.035,0.046,0.053l-0.062,0.111c0.027,0.029,0.057,0.055,0.086,0.082l0.109-0.068
				c0.018,0.016,0.035,0.029,0.055,0.045l-0.04,0.121c0.017,0.012,0.032,0.023,0.048,0.031c0.018,0.014,0.033,0.023,0.051,0.031
				l0.095-0.084c0.021,0.01,0.042,0.021,0.062,0.031l-0.017,0.127c0.036,0.016,0.072,0.031,0.107,0.045l0.078-0.102
				c0.022,0.008,0.045,0.016,0.067,0.02l0.007,0.129c0.039,0.008,0.077,0.018,0.115,0.023l0.058-0.115
				c0.022,0.006,0.046,0.008,0.069,0.01l0.03,0.123c0.04,0.002,0.079,0.004,0.117,0.004l0.035-0.125c0.024,0,0.047-0.002,0.07-0.004
				l0.053,0.117c0.038-0.008,0.077-0.012,0.116-0.021l0.012-0.127c0.023-0.004,0.045-0.01,0.068-0.016l0.074,0.104
				c0.036-0.012,0.072-0.025,0.108-0.039l-0.011-0.129c0.022-0.01,0.042-0.018,0.065-0.029l0.09,0.088
				c0.035-0.016,0.068-0.037,0.102-0.059l-0.035-0.123c0.02-0.014,0.039-0.027,0.057-0.043l0.107,0.074
				c0.029-0.025,0.06-0.051,0.087-0.078l-0.056-0.113c0.016-0.018,0.032-0.035,0.048-0.053l0.117,0.051
				c0.024-0.029,0.05-0.061,0.072-0.092l-0.076-0.104c0.006-0.01,0.013-0.02,0.021-0.027c0.006-0.012,0.012-0.02,0.018-0.031
				l0.125,0.029c0.02-0.035,0.037-0.07,0.054-0.105l-0.094-0.086c0.01-0.021,0.019-0.043,0.026-0.064l0.128,0.004
				c0.013-0.035,0.024-0.074,0.034-0.111l-0.108-0.068c0.005-0.021,0.011-0.047,0.015-0.068l0.125-0.02
				c0.007-0.039,0.012-0.078,0.014-0.115l-0.119-0.047C98.864,69.277,98.864,69.254,98.864,69.23z M98.181,68.289
				c0.225,0.162,0.375,0.393,0.443,0.643l-0.751,0.162c-0.022-0.061-0.06-0.115-0.109-0.16L98.181,68.289z M97.438,68.068
				c0.035-0.004,0.072-0.004,0.107,0c0.182,0.008,0.363,0.059,0.53,0.154l-0.417,0.645c-0.061-0.027-0.126-0.039-0.189-0.035
				l-0.162-0.75C97.351,68.074,97.394,68.07,97.438,68.068z M97.186,68.107l0.161,0.75c-0.055,0.021-0.105,0.055-0.148,0.1
				c-0.004,0.002-0.007,0.006-0.011,0.012l-0.645-0.418C96.707,68.326,96.935,68.176,97.186,68.107z M96.476,68.654l0.645,0.416
				c-0.027,0.061-0.038,0.127-0.034,0.191l-0.75,0.16C96.294,69.166,96.338,68.895,96.476,68.654z M96.805,70.188
				c-0.225-0.162-0.376-0.391-0.442-0.643l0.75-0.162c0.021,0.055,0.053,0.105,0.098,0.149c0.004,0.004,0.008,0.008,0.012,0.01
				L96.805,70.188z M96.909,70.256l0.418-0.645c0.033,0.014,0.07,0.025,0.105,0.029c0.028,0.004,0.057,0.006,0.082,0.004
				l0.162,0.752C97.421,70.438,97.149,70.393,96.909,70.256z M97.8,70.369l-0.162-0.75c0.061-0.023,0.116-0.061,0.158-0.109
				l0.646,0.416C98.279,70.15,98.05,70.301,97.8,70.369z M98.509,69.82l-0.644-0.416c0.027-0.062,0.039-0.127,0.035-0.189
				l0.75-0.162C98.69,69.311,98.647,69.582,98.509,69.82z"/>
			<path id="XMLID_1902_" fill="#333333" d="M92.401,70.533l0.125-0.043c-0.002-0.043-0.006-0.082-0.01-0.121l-0.129-0.025
				c-0.004-0.024-0.008-0.047-0.013-0.07l0.114-0.064c-0.008-0.041-0.019-0.078-0.03-0.119h-0.132
				c-0.008-0.023-0.016-0.045-0.024-0.068l0.101-0.086c-0.016-0.035-0.033-0.072-0.051-0.109l-0.131,0.023
				c-0.012-0.02-0.024-0.041-0.037-0.061l0.084-0.102c-0.022-0.035-0.047-0.066-0.071-0.1l-0.123,0.047
				c-0.017-0.018-0.031-0.035-0.048-0.055l0.062-0.115c-0.027-0.027-0.057-0.055-0.088-0.082l-0.112,0.068
				c-0.018-0.016-0.037-0.031-0.056-0.045l0.039-0.125c-0.016-0.012-0.032-0.024-0.049-0.035c-0.018-0.01-0.035-0.02-0.053-0.031
				l-0.098,0.09c-0.02-0.012-0.043-0.023-0.064-0.033l0.018-0.133c-0.037-0.016-0.074-0.031-0.111-0.045l-0.08,0.104
				c-0.023-0.008-0.047-0.014-0.069-0.02l-0.007-0.133c-0.04-0.01-0.08-0.018-0.119-0.023l-0.06,0.117
				c-0.022-0.004-0.045-0.006-0.067-0.008c-0.002,0-0.002,0-0.004,0l-0.032-0.127c-0.012-0.002-0.023-0.002-0.036-0.002
				C91.028,69,91.015,69,91.001,69c-0.016,0-0.03,0-0.045,0l-0.026,0.09l-0.011,0.037c-0.023,0.002-0.049,0.004-0.072,0.006
				l-0.055-0.121c-0.039,0.006-0.08,0.012-0.119,0.02l-0.013,0.133c-0.022,0.004-0.048,0.01-0.07,0.018l-0.075-0.107
				c-0.039,0.012-0.076,0.027-0.113,0.041l0.011,0.131c-0.022,0.01-0.044,0.021-0.065,0.031l-0.094-0.092
				c-0.035,0.02-0.07,0.039-0.104,0.061l0.035,0.129c-0.02,0.012-0.039,0.027-0.059,0.041l-0.109-0.074
				c-0.031,0.025-0.062,0.053-0.092,0.08l0.059,0.119c-0.018,0.018-0.033,0.033-0.049,0.053l-0.122-0.053
				c-0.026,0.031-0.051,0.062-0.075,0.096l0.08,0.107c-0.008,0.008-0.014,0.018-0.02,0.027c-0.007,0.012-0.013,0.021-0.019,0.031
				l-0.13-0.029c-0.021,0.035-0.038,0.072-0.056,0.107l0.097,0.09c-0.009,0.021-0.019,0.043-0.026,0.066l-0.133-0.006
				c-0.014,0.039-0.025,0.078-0.035,0.117l0.111,0.07c-0.006,0.023-0.01,0.047-0.014,0.07l-0.131,0.02
				c-0.006,0.041-0.012,0.08-0.014,0.119l0.123,0.049c-0.001,0.023-0.002,0.047-0.001,0.072l-0.125,0.043
				c0.001,0.041,0.004,0.082,0.009,0.121l0.129,0.025c0.004,0.023,0.008,0.047,0.013,0.07l-0.114,0.064
				c0.009,0.041,0.019,0.08,0.031,0.119h0.131c0.008,0.023,0.016,0.045,0.025,0.068l-0.102,0.086
				c0.016,0.037,0.033,0.072,0.052,0.109l0.13-0.025c0.013,0.021,0.023,0.043,0.037,0.064l-0.083,0.102
				c0.022,0.033,0.046,0.064,0.071,0.096l0.123-0.047c0.016,0.02,0.03,0.037,0.047,0.057l-0.063,0.115
				c0.028,0.027,0.058,0.055,0.087,0.082l0.112-0.068c0.02,0.016,0.039,0.031,0.058,0.045l-0.04,0.125
				c0.017,0.012,0.033,0.022,0.05,0.035c0.017,0.01,0.034,0.02,0.052,0.031l0.098-0.09c0.022,0.012,0.043,0.023,0.065,0.033
				l-0.018,0.133c0.037,0.016,0.074,0.031,0.111,0.045l0.081-0.103c0.022,0.008,0.046,0.014,0.069,0.019l0.006,0.131
				c0.041,0.012,0.08,0.02,0.119,0.025l0.061-0.117c0.023,0.002,0.047,0.006,0.07,0.008l0.031,0.127
				c0.041,0.004,0.082,0.006,0.123,0.004l0.035-0.127c0.024-0.002,0.049-0.004,0.072-0.006l0.055,0.119
				c0.039-0.004,0.079-0.01,0.119-0.02l0.012-0.131c0.025-0.004,0.049-0.01,0.07-0.018l0.076,0.107
				c0.039-0.012,0.076-0.027,0.115-0.041l-0.014-0.131c0.023-0.01,0.045-0.02,0.066-0.033l0.095,0.094
				c0.034-0.02,0.069-0.039,0.103-0.061l-0.035-0.127c0.021-0.014,0.039-0.029,0.059-0.043l0.109,0.072
				c0.031-0.023,0.062-0.051,0.092-0.08l-0.059-0.117c0.018-0.018,0.033-0.035,0.05-0.053l0.12,0.053
				c0.026-0.031,0.052-0.062,0.076-0.096l-0.079-0.105c0.006-0.01,0.013-0.02,0.018-0.031c0.008-0.01,0.014-0.02,0.02-0.029
				l0.129,0.029c0.02-0.035,0.039-0.07,0.057-0.107l-0.097-0.09c0.009-0.021,0.019-0.043,0.026-0.066l0.133,0.006
				c0.014-0.039,0.025-0.078,0.035-0.117l-0.111-0.07c0.006-0.023,0.01-0.047,0.014-0.07l0.131-0.02
				c0.006-0.041,0.011-0.08,0.014-0.119l-0.123-0.049C92.401,70.582,92.401,70.557,92.401,70.533z M91.695,69.561
				c0.231,0.168,0.388,0.404,0.457,0.662l-0.774,0.168c-0.023-0.061-0.062-0.117-0.112-0.164L91.695,69.561z M90.93,69.332
				c0.037-0.002,0.073-0.002,0.11,0c0.188,0.008,0.375,0.061,0.547,0.16l-0.43,0.666c-0.062-0.027-0.129-0.041-0.195-0.037
				l-0.166-0.773C90.839,69.34,90.884,69.336,90.93,69.332z M90.669,69.375l0.167,0.775c-0.058,0.02-0.109,0.053-0.153,0.1
				c-0.004,0.002-0.008,0.006-0.012,0.01l-0.665-0.428C90.173,69.6,90.411,69.443,90.669,69.375z M89.936,69.939l0.664,0.43
				c-0.027,0.062-0.039,0.131-0.035,0.195l-0.774,0.166C89.749,70.467,89.794,70.188,89.936,69.939z M90.274,71.521
				c-0.23-0.17-0.387-0.404-0.456-0.664l0.774-0.166c0.022,0.057,0.055,0.109,0.101,0.152c0.003,0.004,0.008,0.008,0.013,0.01
				L90.274,71.521z M90.384,71.59l0.43-0.664c0.035,0.014,0.072,0.027,0.111,0.031c0.027,0.004,0.057,0.004,0.085,0.004l0.166,0.773
				C90.911,71.777,90.632,71.732,90.384,71.59z M91.302,71.709l-0.166-0.775c0.062-0.023,0.119-0.062,0.163-0.111l0.665,0.428
				C91.798,71.482,91.56,71.639,91.302,71.709z M92.034,71.143l-0.666-0.43c0.029-0.064,0.041-0.131,0.037-0.195l0.774-0.166
				C92.222,70.615,92.177,70.895,92.034,71.143z"/>
			<path id="XMLID_1891_" fill="#333333" d="M87.647,73.332l0.125-0.045c-0.002-0.041-0.005-0.08-0.01-0.119l-0.129-0.025
				c-0.004-0.023-0.008-0.049-0.012-0.072l0.115-0.064c-0.01-0.041-0.02-0.078-0.031-0.117h-0.133
				c-0.008-0.025-0.016-0.047-0.025-0.068l0.102-0.086c-0.016-0.037-0.033-0.074-0.052-0.109l-0.13,0.023
				c-0.012-0.02-0.024-0.041-0.037-0.062l0.084-0.102c-0.022-0.033-0.047-0.066-0.071-0.098l-0.124,0.047
				c-0.014-0.018-0.03-0.037-0.048-0.055l0.063-0.115c-0.027-0.027-0.057-0.057-0.088-0.084l-0.112,0.07
				c-0.019-0.016-0.038-0.031-0.057-0.045l0.04-0.127c-0.016-0.012-0.032-0.021-0.049-0.033c-0.018-0.01-0.035-0.021-0.053-0.031
				l-0.097,0.088c-0.022-0.012-0.044-0.023-0.065-0.033l0.019-0.131c-0.037-0.016-0.075-0.033-0.112-0.045l-0.08,0.104
				c-0.023-0.008-0.047-0.016-0.07-0.02l-0.007-0.133c-0.04-0.01-0.079-0.018-0.118-0.025l-0.059,0.119
				c-0.023-0.004-0.046-0.006-0.068-0.008c-0.002,0-0.002,0-0.004,0l-0.031-0.129c-0.012-0.002-0.023-0.002-0.035-0.002
				c-0.014,0-0.027,0-0.041,0c-0.016-0.002-0.029-0.002-0.046,0l-0.025,0.09l-0.011,0.035c-0.023,0.002-0.049,0.006-0.072,0.008
				l-0.055-0.121c-0.04,0.004-0.08,0.01-0.119,0.02l-0.014,0.131c-0.022,0.006-0.045,0.012-0.07,0.02l-0.074-0.107
				c-0.039,0.012-0.076,0.025-0.113,0.041l0.012,0.131c-0.023,0.01-0.045,0.02-0.066,0.031l-0.094-0.094
				c-0.036,0.02-0.07,0.041-0.104,0.062l0.035,0.127c-0.019,0.014-0.038,0.027-0.058,0.043l-0.11-0.074
				c-0.03,0.025-0.062,0.051-0.091,0.08l0.059,0.117c-0.017,0.018-0.033,0.035-0.049,0.055l-0.121-0.055
				c-0.027,0.031-0.052,0.064-0.076,0.096l0.08,0.105c-0.008,0.01-0.014,0.02-0.021,0.031c-0.005,0.01-0.013,0.02-0.02,0.029
				l-0.129-0.027c-0.02,0.035-0.038,0.07-0.056,0.105l0.098,0.092c-0.01,0.021-0.02,0.043-0.027,0.066l-0.133-0.006
				c-0.013,0.039-0.025,0.076-0.035,0.115l0.112,0.072c-0.006,0.021-0.011,0.047-0.015,0.07l-0.131,0.018
				c-0.006,0.041-0.011,0.08-0.014,0.121l0.123,0.049c-0.001,0.021-0.002,0.047-0.002,0.072l-0.124,0.043
				c0.002,0.041,0.004,0.082,0.009,0.121l0.129,0.025c0.005,0.023,0.008,0.045,0.012,0.07l-0.113,0.064
				c0.008,0.041,0.02,0.078,0.03,0.117h0.132c0.008,0.023,0.016,0.047,0.025,0.07l-0.101,0.084c0.015,0.037,0.032,0.072,0.052,0.109
				l0.129-0.024c0.013,0.021,0.024,0.041,0.037,0.062l-0.084,0.102c0.022,0.035,0.047,0.066,0.071,0.098l0.124-0.049
				c0.015,0.02,0.031,0.037,0.047,0.057l-0.062,0.115c0.027,0.027,0.058,0.057,0.088,0.084l0.112-0.07
				c0.019,0.016,0.038,0.031,0.057,0.047l-0.04,0.125c0.016,0.01,0.033,0.021,0.05,0.033c0.017,0.012,0.034,0.02,0.052,0.031
				l0.098-0.088c0.021,0.012,0.043,0.023,0.064,0.033l-0.018,0.133c0.037,0.014,0.074,0.029,0.111,0.045l0.08-0.105
				c0.023,0.008,0.047,0.016,0.07,0.021l0.008,0.131c0.039,0.012,0.077,0.018,0.117,0.025l0.06-0.117
				c0.024,0.002,0.048,0.004,0.071,0.008l0.031,0.127c0.042,0.002,0.082,0.006,0.121,0.002l0.037-0.127
				c0.024,0,0.049-0.002,0.073-0.006l0.054,0.121c0.041-0.004,0.08-0.012,0.119-0.02l0.013-0.133c0.023-0.004,0.047-0.01,0.07-0.016
				l0.076,0.107c0.038-0.014,0.075-0.027,0.113-0.043l-0.012-0.131c0.022-0.01,0.044-0.02,0.065-0.031l0.094,0.094
				c0.035-0.02,0.07-0.039,0.104-0.062l-0.036-0.127c0.021-0.012,0.04-0.027,0.059-0.043l0.111,0.074
				c0.03-0.023,0.061-0.051,0.09-0.08l-0.059-0.117c0.018-0.02,0.033-0.037,0.05-0.053l0.121,0.051
				c0.026-0.029,0.052-0.062,0.075-0.096l-0.08-0.105c0.008-0.008,0.014-0.02,0.021-0.029c0.006-0.01,0.012-0.02,0.018-0.031
				l0.129,0.031c0.021-0.037,0.039-0.072,0.057-0.109l-0.098-0.088c0.011-0.023,0.019-0.045,0.028-0.068l0.132,0.006
				c0.014-0.039,0.024-0.078,0.035-0.115l-0.111-0.07c0.005-0.023,0.01-0.047,0.014-0.07l0.131-0.019
				c0.006-0.041,0.012-0.08,0.014-0.119l-0.123-0.051C87.646,73.379,87.647,73.354,87.647,73.332z M86.942,72.359
				c0.23,0.168,0.387,0.404,0.457,0.662l-0.775,0.168c-0.023-0.062-0.062-0.119-0.113-0.164L86.942,72.359z M86.176,72.131
				c0.036-0.002,0.073-0.002,0.112,0c0.187,0.008,0.373,0.059,0.545,0.16l-0.43,0.664c-0.063-0.027-0.13-0.039-0.195-0.037
				l-0.167-0.773C86.085,72.139,86.131,72.133,86.176,72.131z M85.915,72.172l0.166,0.773c-0.057,0.021-0.108,0.057-0.152,0.102
				c-0.004,0.004-0.007,0.008-0.012,0.012l-0.664-0.428C85.42,72.396,85.657,72.242,85.915,72.172z M85.183,72.736l0.666,0.432
				c-0.029,0.061-0.041,0.129-0.037,0.195l-0.773,0.166C84.995,73.266,85.04,72.984,85.183,72.736z M85.522,74.318
				c-0.232-0.168-0.389-0.404-0.459-0.662l0.775-0.166c0.021,0.055,0.055,0.107,0.1,0.15c0.006,0.004,0.01,0.008,0.014,0.012
				L85.522,74.318z M85.629,74.387l0.432-0.664c0.034,0.016,0.071,0.025,0.11,0.033c0.029,0.004,0.057,0.004,0.084,0.004
				l0.168,0.773C86.157,74.576,85.877,74.529,85.629,74.387z M86.548,74.506l-0.167-0.775c0.063-0.023,0.119-0.062,0.164-0.111
				l0.665,0.43C87.043,74.279,86.806,74.438,86.548,74.506z M87.28,73.941l-0.666-0.43c0.029-0.064,0.041-0.133,0.037-0.197
				l0.775-0.166C87.468,73.414,87.423,73.693,87.28,73.941z"/>
			<g id="XMLID_1880_">
				<g id="XMLID_1886_">
					<path id="XMLID_1887_" fill="#333333" d="M87.466,68.473c-0.006-0.035-0.038-0.066-0.072-0.072l-0.137-0.02
						c-0.035-0.006-0.072-0.037-0.084-0.07l-0.059-0.133c-0.016-0.031-0.013-0.08,0.007-0.109l0.078-0.113
						c0.02-0.029,0.018-0.076-0.004-0.104l-0.075-0.084c-0.024-0.025-0.069-0.033-0.103-0.018l-0.121,0.066
						c-0.031,0.016-0.08,0.012-0.109-0.008c0,0-0.021-0.016-0.061-0.039c-0.041-0.023-0.064-0.035-0.064-0.035
						c-0.031-0.014-0.059-0.057-0.06-0.09l-0.005-0.139c0-0.035-0.029-0.072-0.064-0.08L86.423,67.4
						c-0.033-0.004-0.075,0.016-0.09,0.047l-0.021,0.041l-0.023,0.049L86.27,67.57c-0.016,0.033-0.057,0.061-0.092,0.061
						l-0.053,0.004l-0.025,0.002l-0.066,0.008c-0.036,0.006-0.082-0.012-0.102-0.039l-0.086-0.111
						c-0.021-0.027-0.065-0.039-0.098-0.027l-0.104,0.047c-0.032,0.016-0.053,0.055-0.047,0.09l0.022,0.137
						c0.007,0.035-0.013,0.08-0.04,0.101l-0.109,0.098c-0.023,0.025-0.071,0.037-0.105,0.027l-0.133-0.039
						c-0.033-0.01-0.076,0.008-0.097,0.035c0,0-0.01,0.014-0.03,0.049c-0.02,0.033-0.027,0.049-0.027,0.049
						c-0.016,0.031-0.008,0.078,0.018,0.104l0.099,0.096c0.024,0.025,0.038,0.072,0.028,0.105l-0.031,0.142
						c-0.006,0.035-0.037,0.072-0.069,0.084l-0.13,0.047c-0.033,0.014-0.06,0.051-0.057,0.086l0.011,0.113
						c0.005,0.035,0.038,0.066,0.072,0.072l0.136,0.02c0.035,0.006,0.074,0.037,0.086,0.068l0.059,0.135
						c0.016,0.031,0.013,0.08-0.008,0.109l-0.078,0.113c-0.019,0.029-0.018,0.076,0.006,0.102l0.074,0.086
						c0.025,0.023,0.069,0.031,0.102,0.016l0.122-0.064c0.031-0.016,0.079-0.014,0.108,0.008c0,0,0.022,0.016,0.062,0.039
						c0.039,0.023,0.064,0.035,0.064,0.035c0.031,0.016,0.059,0.055,0.059,0.09l0.004,0.139c0.002,0.035,0.029,0.07,0.065,0.08
						l0.109,0.025c0.035,0.006,0.076-0.016,0.092-0.047l0.061-0.123c0.017-0.033,0.059-0.061,0.093-0.061l0.146-0.014
						c0.034-0.006,0.08,0.012,0.101,0.041l0.084,0.107c0.022,0.029,0.066,0.039,0.1,0.029l0.104-0.047
						c0.031-0.016,0.053-0.057,0.047-0.09l-0.023-0.137c-0.006-0.035,0.012-0.082,0.041-0.101l0.107-0.098
						c0.025-0.025,0.072-0.037,0.105-0.029l0.133,0.039c0.033,0.012,0.078-0.006,0.098-0.033c0,0,0.01-0.014,0.031-0.049
						c0.02-0.035,0.025-0.051,0.025-0.051c0.016-0.031,0.008-0.076-0.017-0.102l-0.099-0.096c-0.025-0.023-0.039-0.072-0.027-0.105
						l0.03-0.142c0.007-0.035,0.036-0.072,0.069-0.084l0.131-0.047c0.031-0.014,0.059-0.051,0.056-0.086L87.466,68.473z
						 M86.827,69.02c-0.2,0.342-0.641,0.457-0.984,0.256c-0.343-0.201-0.459-0.641-0.257-0.984c0.114-0.195,0.308-0.316,0.515-0.348
						c0.024-0.004,0.049-0.006,0.072-0.006c0.023-0.002,0.045-0.002,0.067,0c0.025,0,0.049,0.002,0.072,0.006
						c0.088,0.014,0.176,0.043,0.258,0.092C86.913,68.234,87.028,68.676,86.827,69.02z"/>
				</g>
				<g id="XMLID_1881_">
					<path id="XMLID_1882_" fill="#333333" d="M86.466,68.213c-0.049-0.029-0.101-0.049-0.154-0.059
						c-0.07-0.016-0.142-0.016-0.211,0c-0.136,0.027-0.261,0.113-0.337,0.242c-0.144,0.244-0.062,0.559,0.185,0.701
						c0.244,0.145,0.559,0.062,0.701-0.184C86.793,68.67,86.71,68.355,86.466,68.213z M86.366,68.746
						c-0.052,0.09-0.166,0.121-0.253,0.068c-0.089-0.053-0.118-0.164-0.066-0.252c0.014-0.025,0.031-0.045,0.053-0.059
						c0.058-0.041,0.135-0.045,0.199-0.008c0.005,0.002,0.008,0.004,0.012,0.008C86.39,68.557,86.415,68.664,86.366,68.746z"/>
				</g>
			</g>
			<g id="XMLID_1869_">
				<g id="XMLID_1875_">
					<path id="XMLID_1876_" fill="#333333" d="M82.217,69.5c-0.004-0.025-0.029-0.051-0.056-0.053l-0.104-0.018
						c-0.027-0.004-0.057-0.027-0.065-0.053l-0.045-0.104c-0.013-0.021-0.011-0.059,0.005-0.082l0.059-0.086
						c0.017-0.023,0.016-0.059-0.002-0.078l-0.058-0.066c-0.019-0.02-0.054-0.023-0.077-0.012l-0.094,0.049
						c-0.024,0.012-0.061,0.01-0.082-0.006c0,0-0.018-0.012-0.048-0.031c-0.03-0.018-0.05-0.023-0.05-0.023
						c-0.023-0.014-0.043-0.043-0.045-0.07l-0.003-0.105c-0.001-0.027-0.022-0.057-0.049-0.062l-0.084-0.018
						c-0.026-0.006-0.058,0.012-0.069,0.035l-0.016,0.029l-0.019,0.037l-0.014,0.029c-0.012,0.023-0.044,0.043-0.071,0.045
						l-0.04,0.002l-0.019,0.004l-0.051,0.004c-0.027,0.006-0.062-0.01-0.078-0.031l-0.064-0.082
						c-0.017-0.021-0.051-0.031-0.076-0.021l-0.078,0.033c-0.025,0.014-0.041,0.045-0.036,0.07l0.018,0.105
						c0.005,0.027-0.01,0.062-0.03,0.078l-0.084,0.074c-0.019,0.017-0.055,0.027-0.08,0.019l-0.102-0.029
						c-0.025-0.006-0.061,0.004-0.074,0.027c0,0-0.008,0.01-0.023,0.037c-0.016,0.025-0.021,0.037-0.021,0.037
						c-0.012,0.023-0.006,0.061,0.014,0.078l0.075,0.074c0.02,0.018,0.028,0.055,0.022,0.08l-0.024,0.109
						c-0.005,0.027-0.028,0.057-0.054,0.064l-0.1,0.035c-0.024,0.01-0.044,0.039-0.043,0.066l0.009,0.088
						c0.004,0.025,0.028,0.049,0.056,0.053l0.104,0.016c0.027,0.004,0.057,0.027,0.066,0.053l0.044,0.102
						c0.013,0.025,0.011,0.062-0.005,0.084l-0.059,0.088c-0.017,0.022-0.016,0.057,0.003,0.078l0.056,0.064
						c0.02,0.02,0.055,0.025,0.078,0.012l0.094-0.049c0.023-0.012,0.061-0.01,0.082,0.008c0,0,0.018,0.01,0.047,0.027
						c0.031,0.018,0.051,0.027,0.051,0.027c0.023,0.012,0.045,0.043,0.045,0.07l0.003,0.105c0.001,0.027,0.022,0.055,0.049,0.061
						l0.084,0.02c0.026,0.004,0.058-0.012,0.07-0.035l0.047-0.096c0.012-0.024,0.044-0.043,0.07-0.045l0.11-0.012
						c0.026-0.004,0.062,0.01,0.078,0.031l0.064,0.084c0.017,0.02,0.051,0.031,0.076,0.02l0.079-0.035
						c0.024-0.012,0.04-0.043,0.036-0.068l-0.019-0.104c-0.004-0.027,0.009-0.062,0.03-0.08l0.084-0.072
						c0.02-0.02,0.056-0.029,0.081-0.02l0.101,0.027c0.027,0.008,0.059-0.004,0.074-0.025c0,0,0.008-0.012,0.023-0.037
						c0.016-0.027,0.021-0.039,0.021-0.039c0.012-0.024,0.006-0.059-0.014-0.078l-0.075-0.072c-0.02-0.02-0.028-0.057-0.021-0.082
						l0.023-0.109c0.005-0.025,0.028-0.055,0.054-0.064l0.1-0.035c0.023-0.01,0.045-0.037,0.043-0.066L82.217,69.5z M81.728,69.92
						c-0.153,0.26-0.49,0.35-0.753,0.195c-0.262-0.154-0.35-0.49-0.196-0.754c0.088-0.148,0.235-0.242,0.393-0.266
						c0.019-0.002,0.037-0.004,0.056-0.004c0.017-0.002,0.034-0.002,0.051,0c0.018,0,0.037,0.002,0.056,0.004
						c0.066,0.01,0.135,0.033,0.197,0.07C81.794,69.318,81.882,69.656,81.728,69.92z"/>
				</g>
				<g id="XMLID_1870_">
					<path id="XMLID_1871_" fill="#333333" d="M81.452,69.303c-0.037-0.024-0.078-0.037-0.117-0.047c-0.055-0.01-0.109-0.01-0.162,0
						c-0.103,0.021-0.199,0.086-0.258,0.186c-0.109,0.188-0.046,0.428,0.141,0.537c0.188,0.109,0.428,0.047,0.537-0.141
						C81.702,69.652,81.639,69.412,81.452,69.303z M81.376,69.709c-0.039,0.07-0.127,0.094-0.192,0.053
						c-0.068-0.039-0.091-0.127-0.052-0.193c0.012-0.018,0.025-0.033,0.041-0.045c0.044-0.029,0.104-0.033,0.152-0.006
						c0.004,0.002,0.007,0.004,0.01,0.006C81.394,69.566,81.413,69.646,81.376,69.709z"/>
				</g>
			</g>
			<g id="XMLID_1858_">
				<g id="XMLID_1864_">
					<path id="XMLID_1865_" fill="#333333" d="M95.929,65.285c-0.006-0.037-0.043-0.074-0.082-0.08l-0.15-0.021
						c-0.039-0.008-0.081-0.041-0.095-0.078l-0.065-0.148c-0.017-0.033-0.014-0.088,0.008-0.121l0.088-0.127
						c0.021-0.031,0.02-0.084-0.006-0.113l-0.083-0.094c-0.028-0.027-0.078-0.037-0.113-0.018l-0.136,0.072
						c-0.035,0.018-0.09,0.012-0.12-0.01c0,0-0.023-0.018-0.069-0.045c-0.044-0.025-0.071-0.037-0.071-0.037
						c-0.034-0.018-0.063-0.061-0.065-0.1l-0.004-0.156c-0.003-0.037-0.033-0.076-0.07-0.088l-0.123-0.025
						c-0.039-0.008-0.084,0.016-0.102,0.051l-0.021,0.045l-0.027,0.055l-0.02,0.037c-0.018,0.033-0.064,0.066-0.104,0.066
						l-0.059,0.004l-0.026,0.004l-0.075,0.008c-0.039,0.008-0.089-0.014-0.113-0.045l-0.094-0.121
						c-0.023-0.029-0.072-0.043-0.109-0.029l-0.115,0.049c-0.035,0.017-0.059,0.064-0.052,0.101l0.026,0.152
						c0.006,0.039-0.015,0.088-0.045,0.111l-0.121,0.109c-0.027,0.027-0.08,0.041-0.117,0.029l-0.147-0.043
						c-0.038-0.01-0.085,0.006-0.108,0.039c0,0-0.011,0.016-0.033,0.055c-0.022,0.039-0.029,0.053-0.029,0.053
						c-0.019,0.037-0.01,0.088,0.018,0.115l0.111,0.105c0.026,0.027,0.041,0.082,0.03,0.119l-0.036,0.158
						c-0.006,0.037-0.039,0.08-0.076,0.094l-0.144,0.053c-0.037,0.012-0.065,0.055-0.063,0.094l0.012,0.125
						c0.006,0.039,0.043,0.076,0.081,0.082l0.151,0.021c0.039,0.006,0.081,0.039,0.095,0.076l0.064,0.148
						c0.019,0.035,0.015,0.09-0.007,0.121l-0.086,0.127c-0.021,0.033-0.021,0.084,0.004,0.113l0.083,0.096
						c0.028,0.027,0.078,0.035,0.112,0.016l0.137-0.07c0.035-0.018,0.088-0.014,0.12,0.008c0,0,0.024,0.017,0.067,0.045
						c0.045,0.025,0.073,0.037,0.073,0.037c0.034,0.018,0.064,0.06,0.066,0.101l0.004,0.152c0.001,0.039,0.032,0.082,0.07,0.09
						l0.123,0.025c0.036,0.008,0.083-0.014,0.101-0.051l0.068-0.139c0.018-0.031,0.062-0.062,0.103-0.064l0.16-0.016
						c0.039-0.006,0.09,0.014,0.113,0.043l0.094,0.123c0.024,0.031,0.073,0.045,0.11,0.031l0.115-0.051
						c0.035-0.018,0.058-0.064,0.051-0.104l-0.025-0.148c-0.006-0.039,0.015-0.09,0.045-0.115l0.121-0.107
						c0.027-0.025,0.08-0.041,0.117-0.029l0.147,0.043c0.036,0.01,0.086-0.006,0.108-0.039c0,0,0.011-0.016,0.033-0.055
						c0.022-0.039,0.029-0.053,0.029-0.053c0.017-0.037,0.01-0.088-0.019-0.115l-0.109-0.105c-0.028-0.027-0.042-0.082-0.03-0.119
						l0.033-0.158c0.007-0.037,0.041-0.078,0.078-0.094l0.145-0.051c0.035-0.014,0.064-0.057,0.062-0.096L95.929,65.285z
						 M95.219,65.893c-0.223,0.381-0.712,0.508-1.093,0.285c-0.381-0.225-0.51-0.713-0.285-1.094
						c0.127-0.219,0.34-0.352,0.571-0.387c0.026-0.004,0.053-0.006,0.08-0.008c0.024,0,0.05,0,0.073,0
						c0.027,0.002,0.055,0.004,0.082,0.008c0.097,0.014,0.194,0.047,0.286,0.1C95.313,65.021,95.442,65.51,95.219,65.893z"/>
				</g>
				<g id="XMLID_1859_">
					<path id="XMLID_1860_" fill="#333333" d="M94.816,64.998c-0.054-0.033-0.112-0.055-0.169-0.068c-0.08-0.016-0.16-0.014-0.235,0
						c-0.151,0.033-0.289,0.125-0.374,0.27c-0.159,0.271-0.068,0.621,0.204,0.779c0.272,0.16,0.62,0.068,0.78-0.203
						C95.181,65.504,95.089,65.154,94.816,64.998z M94.706,65.592c-0.057,0.096-0.182,0.131-0.28,0.072
						c-0.098-0.057-0.131-0.184-0.073-0.281c0.015-0.025,0.035-0.047,0.06-0.064c0.063-0.043,0.149-0.049,0.222-0.008
						c0.004,0.004,0.008,0.006,0.014,0.01C94.733,65.379,94.761,65.498,94.706,65.592z"/>
				</g>
			</g>
			<g id="XMLID_1847_">
				<g id="XMLID_1853_">
					<path id="XMLID_1854_" fill="#333333" d="M92.692,76.908c-0.007-0.041-0.046-0.082-0.088-0.086l-0.164-0.025
						c-0.043-0.006-0.088-0.043-0.101-0.084l-0.07-0.158c-0.02-0.039-0.018-0.098,0.008-0.133l0.094-0.137
						c0.023-0.035,0.021-0.09-0.005-0.123l-0.092-0.104c-0.029-0.029-0.084-0.037-0.122-0.018l-0.147,0.076
						c-0.038,0.02-0.097,0.016-0.13-0.01c0,0-0.026-0.02-0.075-0.047c-0.047-0.027-0.076-0.041-0.076-0.041
						c-0.039-0.018-0.07-0.066-0.072-0.109l-0.006-0.166c0-0.041-0.035-0.086-0.076-0.096l-0.133-0.031
						c-0.041-0.006-0.091,0.018-0.109,0.057l-0.024,0.051l-0.028,0.057l-0.021,0.041c-0.018,0.037-0.068,0.07-0.111,0.072
						L91.077,75.9l-0.027,0.002l-0.082,0.01c-0.042,0.006-0.098-0.016-0.123-0.049l-0.102-0.131
						c-0.025-0.035-0.079-0.049-0.119-0.035L90.5,75.752c-0.039,0.02-0.063,0.07-0.056,0.111l0.026,0.164
						c0.007,0.041-0.015,0.098-0.048,0.121l-0.131,0.117c-0.029,0.031-0.086,0.045-0.127,0.033l-0.16-0.047
						c-0.04-0.012-0.093,0.008-0.117,0.043c0,0-0.012,0.016-0.035,0.059c-0.024,0.043-0.033,0.059-0.033,0.059
						c-0.02,0.039-0.01,0.094,0.02,0.123l0.118,0.117c0.03,0.029,0.045,0.086,0.035,0.127l-0.039,0.172
						c-0.006,0.043-0.043,0.086-0.084,0.102l-0.154,0.057c-0.041,0.014-0.072,0.059-0.069,0.102l0.013,0.137
						c0.007,0.041,0.047,0.082,0.088,0.086l0.164,0.025c0.043,0.008,0.087,0.043,0.102,0.082l0.072,0.162
						c0.019,0.037,0.014,0.096-0.008,0.133l-0.095,0.135c-0.024,0.035-0.021,0.092,0.005,0.123l0.09,0.104
						c0.029,0.029,0.084,0.037,0.122,0.018l0.147-0.076c0.037-0.02,0.096-0.016,0.131,0.01c0,0,0.026,0.02,0.074,0.047
						c0.048,0.027,0.078,0.041,0.078,0.041c0.037,0.018,0.069,0.067,0.07,0.108l0.006,0.168c0.001,0.043,0.035,0.086,0.076,0.098
						l0.133,0.029c0.041,0.006,0.091-0.018,0.109-0.057l0.074-0.148c0.02-0.037,0.069-0.07,0.11-0.072l0.175-0.017
						c0.042-0.006,0.098,0.016,0.123,0.049l0.102,0.131c0.026,0.035,0.079,0.051,0.119,0.035l0.125-0.057
						c0.037-0.018,0.062-0.068,0.056-0.109l-0.028-0.164c-0.006-0.041,0.016-0.098,0.049-0.123l0.131-0.115
						c0.029-0.029,0.088-0.047,0.127-0.033l0.16,0.047c0.04,0.01,0.092-0.01,0.117-0.043c0,0,0.012-0.016,0.035-0.059
						c0.025-0.041,0.033-0.059,0.033-0.059c0.02-0.039,0.01-0.094-0.021-0.123l-0.118-0.117c-0.03-0.029-0.047-0.086-0.033-0.127
						l0.037-0.17c0.006-0.043,0.043-0.088,0.082-0.104l0.158-0.057c0.039-0.014,0.07-0.059,0.067-0.102L92.692,76.908z
						 M91.923,77.564c-0.24,0.414-0.771,0.551-1.185,0.311c-0.411-0.24-0.551-0.771-0.309-1.184c0.139-0.238,0.37-0.383,0.621-0.422
						c0.027-0.004,0.057-0.004,0.086-0.006c0.027-0.002,0.053-0.002,0.08,0c0.029,0.002,0.058,0.002,0.087,0.006
						c0.106,0.018,0.212,0.053,0.312,0.111C92.026,76.621,92.165,77.152,91.923,77.564z"/>
				</g>
				<g id="XMLID_1848_">
					<path id="XMLID_1849_" fill="#333333" d="M91.487,76.596c-0.059-0.035-0.121-0.059-0.185-0.07c-0.085-0.02-0.171-0.018-0.253,0
						c-0.166,0.033-0.315,0.133-0.406,0.291c-0.174,0.295-0.074,0.672,0.221,0.844c0.295,0.172,0.673,0.076,0.846-0.221
						C91.882,77.145,91.782,76.768,91.487,76.596z M91.368,77.24c-0.062,0.105-0.198,0.142-0.305,0.08
						c-0.106-0.064-0.141-0.199-0.08-0.305c0.018-0.029,0.039-0.055,0.066-0.07c0.068-0.049,0.161-0.055,0.239-0.008
						c0.005,0,0.01,0.004,0.014,0.008C91.397,77.01,91.427,77.139,91.368,77.24z"/>
				</g>
			</g>
			<path id="XMLID_1843_" fill="#FFFFFF" d="M98.386,74.182l0.52-0.121l-0.256-1.096l-0.52,0.123
				c-0.176-0.402-0.433-0.754-0.744-1.037l0.279-0.453l-0.955-0.594l-0.281,0.453c-0.311-0.121-0.641-0.191-0.982-0.207
				c-0.088-0.004-0.178-0.004-0.268,0c-0.004,0-0.008,0-0.012,0l-0.12-0.518l-1.095,0.258l0.121,0.517
				c-0.104,0.045-0.207,0.1-0.305,0.156c-0.277,0.156-0.523,0.359-0.732,0.59l-0.454-0.281l-0.591,0.955l0.452,0.281
				c-0.153,0.393-0.227,0.822-0.206,1.26l-0.519,0.121l0.256,1.096l0.519-0.121c0.176,0.402,0.433,0.754,0.746,1.037l-0.281,0.453
				l0.955,0.592l0.282-0.453c0.394,0.154,0.822,0.229,1.261,0.207l0.121,0.52l1.094-0.258l-0.121-0.518
				c0.106-0.047,0.209-0.1,0.307-0.156c0.275-0.156,0.521-0.359,0.733-0.59l0.451,0.281l0.592-0.955l-0.452-0.281
				C98.333,75.051,98.407,74.621,98.386,74.182z M96.452,76.293c-0.189,0.109-0.397,0.193-0.621,0.244
				c-1.223,0.287-2.445-0.471-2.732-1.691c-0.234-1,0.229-1.998,1.073-2.486c0.189-0.111,0.397-0.195,0.621-0.246
				c0.13-0.029,0.257-0.049,0.386-0.057c0.09-0.006,0.18-0.006,0.268,0c0.977,0.059,1.844,0.746,2.078,1.75
				C97.759,74.807,97.296,75.805,96.452,76.293z"/>
			<path id="XMLID_1839_" fill="#FFFFFF" d="M89.131,70.586l0.173-0.039l-0.086-0.365l-0.172,0.041
				c-0.059-0.135-0.144-0.25-0.248-0.346l0.093-0.15l-0.317-0.195l-0.094,0.148c-0.102-0.039-0.213-0.064-0.327-0.068
				c-0.029,0-0.059,0-0.088,0H88.06l-0.04-0.172l-0.362,0.084l0.039,0.174c-0.035,0.014-0.069,0.031-0.102,0.051
				c-0.092,0.055-0.174,0.121-0.244,0.197l-0.15-0.094l-0.196,0.318l0.151,0.092c-0.053,0.133-0.076,0.275-0.07,0.42l-0.172,0.041
				l0.086,0.365l0.172-0.041c0.059,0.133,0.145,0.25,0.248,0.344l-0.093,0.15l0.317,0.197l0.094-0.148
				c0.131,0.051,0.272,0.074,0.419,0.066l0.041,0.174l0.362-0.086l-0.04-0.172c0.036-0.018,0.069-0.031,0.103-0.051
				c0.092-0.055,0.173-0.121,0.243-0.197l0.151,0.094l0.197-0.318l-0.152-0.094C89.113,70.875,89.138,70.732,89.131,70.586z
				 M88.488,71.289c-0.064,0.035-0.134,0.062-0.207,0.08c-0.407,0.098-0.813-0.156-0.909-0.562
				c-0.077-0.332,0.076-0.664,0.357-0.826c0.062-0.037,0.132-0.064,0.206-0.082c0.043-0.01,0.086-0.016,0.129-0.018
				c0.029-0.004,0.059-0.004,0.088,0c0.326,0.018,0.614,0.248,0.692,0.582C88.922,70.795,88.769,71.127,88.488,71.289z"/>
			<path id="XMLID_1835_" fill="#333333" d="M84.632,71.662l0.173-0.041l-0.086-0.363l-0.171,0.039
				c-0.059-0.133-0.145-0.25-0.248-0.344l0.092-0.15l-0.316-0.199l-0.095,0.15c-0.103-0.041-0.213-0.062-0.327-0.068
				c-0.029,0-0.059,0-0.088,0h-0.004l-0.041-0.172L83.157,70.6l0.04,0.172c-0.034,0.016-0.069,0.033-0.103,0.051
				c-0.091,0.053-0.173,0.119-0.242,0.195l-0.15-0.092l-0.197,0.316l0.15,0.096c-0.051,0.129-0.075,0.273-0.068,0.418l-0.173,0.041
				l0.085,0.363l0.173-0.039c0.059,0.133,0.143,0.25,0.247,0.346l-0.092,0.149l0.317,0.197l0.093-0.15
				c0.131,0.053,0.273,0.076,0.42,0.07l0.041,0.172l0.363-0.086l-0.04-0.172c0.034-0.016,0.069-0.033,0.102-0.053
				c0.092-0.053,0.173-0.119,0.243-0.197l0.15,0.094l0.197-0.318l-0.15-0.092C84.614,71.949,84.639,71.807,84.632,71.662z
				 M83.989,72.363c-0.065,0.037-0.133,0.065-0.207,0.082c-0.406,0.094-0.813-0.158-0.909-0.564
				c-0.077-0.332,0.076-0.664,0.356-0.826c0.063-0.037,0.133-0.064,0.207-0.082c0.043-0.012,0.086-0.016,0.129-0.02
				c0.029,0,0.059,0,0.088,0c0.326,0.02,0.613,0.248,0.691,0.582C84.423,71.867,84.269,72.199,83.989,72.363z"/>
			<path id="XMLID_1831_" fill="#FFFFFF" d="M86.243,65.758l0.236-0.055l-0.116-0.5l-0.236,0.055
				c-0.079-0.182-0.196-0.342-0.339-0.473l0.127-0.205l-0.435-0.27l-0.129,0.207c-0.142-0.057-0.292-0.09-0.447-0.094
				c-0.04-0.004-0.081-0.004-0.122,0c-0.001,0-0.004,0-0.004,0l-0.055-0.236l-0.5,0.115l0.056,0.236
				c-0.048,0.021-0.095,0.045-0.14,0.072c-0.125,0.07-0.238,0.164-0.334,0.268L83.6,64.752l-0.27,0.434l0.206,0.129
				c-0.07,0.18-0.104,0.373-0.094,0.574l-0.236,0.055l0.117,0.5l0.236-0.057c0.08,0.184,0.196,0.344,0.339,0.473l-0.128,0.207
				l0.436,0.27l0.129-0.205c0.179,0.068,0.373,0.104,0.574,0.094l0.055,0.236l0.498-0.117l-0.055-0.236
				c0.048-0.021,0.096-0.045,0.139-0.07c0.126-0.074,0.238-0.164,0.334-0.27l0.207,0.129l0.27-0.436l-0.207-0.129
				C86.22,66.154,86.253,65.959,86.243,65.758z M85.362,66.719c-0.086,0.051-0.182,0.09-0.283,0.111
				c-0.557,0.133-1.113-0.213-1.244-0.77c-0.107-0.455,0.104-0.91,0.489-1.133c0.085-0.049,0.181-0.088,0.282-0.111
				c0.059-0.016,0.117-0.023,0.176-0.027c0.041-0.002,0.082-0.002,0.122,0c0.445,0.027,0.84,0.34,0.947,0.799
				C85.958,66.043,85.747,66.496,85.362,66.719z"/>
			<path id="XMLID_1828_" fill="#FFFFFF" d="M92.462,67.943l-0.182,0.504c-0.024,0.064,0.011,0.137,0.076,0.16l0.213,0.074
				c-0.01,0.119-0.003,0.238,0.014,0.352l-0.203,0.092c-0.064,0.027-0.093,0.102-0.063,0.166l0.225,0.49
				c0.028,0.062,0.105,0.09,0.169,0.062l0.193-0.086c0.086,0.109,0.187,0.207,0.304,0.293l-0.066,0.184
				c-0.024,0.066,0.011,0.139,0.077,0.162l0.51,0.182c0.067,0.023,0.14-0.01,0.163-0.074l0.056-0.154
				c0.137,0.018,0.273,0.018,0.406,0.002l0.062,0.133c0.028,0.062,0.104,0.092,0.169,0.062l0.494-0.217
				c0.062-0.029,0.09-0.104,0.062-0.166l-0.047-0.104c0.133-0.098,0.252-0.215,0.35-0.354l0.092,0.033
				c0.066,0.023,0.139-0.012,0.162-0.076l0.182-0.502c0.024-0.066-0.011-0.139-0.077-0.162l-0.079-0.029
				c0.017-0.152,0.01-0.307-0.02-0.453l0.076-0.033c0.063-0.029,0.093-0.104,0.063-0.168l-0.226-0.488
				c-0.028-0.062-0.104-0.092-0.168-0.062l-0.087,0.039c-0.106-0.129-0.235-0.238-0.381-0.328l0.037-0.105
				c0.023-0.064-0.011-0.135-0.077-0.158l-0.512-0.182c-0.066-0.024-0.138,0.008-0.162,0.072l-0.047,0.135
				c-0.139-0.006-0.275,0.004-0.408,0.031l-0.068-0.146c-0.029-0.062-0.104-0.092-0.168-0.062l-0.494,0.219
				c-0.062,0.027-0.092,0.102-0.062,0.166l0.082,0.178c-0.105,0.09-0.2,0.195-0.279,0.314l-0.197-0.068
				C92.558,67.844,92.484,67.879,92.462,67.943z M93.347,68.514c0.157-0.436,0.643-0.662,1.086-0.506
				c0.443,0.158,0.674,0.643,0.518,1.078c-0.157,0.436-0.645,0.66-1.086,0.502C93.421,69.432,93.189,68.951,93.347,68.514z"/>
			<path id="XMLID_1825_" fill="#FFFFFF" d="M81.282,67.617l-0.061,0.17c-0.008,0.021,0.004,0.047,0.025,0.055l0.072,0.024
				c-0.003,0.041-0.002,0.08,0.004,0.121l-0.068,0.029c-0.022,0.01-0.031,0.035-0.022,0.055l0.076,0.168
				c0.01,0.02,0.035,0.029,0.057,0.02l0.065-0.029c0.028,0.037,0.063,0.07,0.103,0.1l-0.022,0.062
				c-0.009,0.021,0.003,0.045,0.025,0.053l0.172,0.062c0.022,0.008,0.048-0.004,0.055-0.025l0.019-0.051
				c0.047,0.004,0.092,0.004,0.139,0l0.02,0.043c0.01,0.023,0.035,0.031,0.057,0.023l0.166-0.074
				c0.021-0.012,0.031-0.035,0.021-0.057l-0.016-0.033c0.045-0.033,0.085-0.074,0.117-0.121l0.031,0.012
				c0.021,0.008,0.047-0.004,0.055-0.025l0.062-0.17c0.008-0.021-0.004-0.047-0.026-0.053l-0.027-0.012
				c0.007-0.051,0.004-0.102-0.006-0.152l0.025-0.012c0.021-0.01,0.031-0.033,0.021-0.057l-0.075-0.164
				c-0.01-0.021-0.035-0.029-0.058-0.021l-0.029,0.014c-0.035-0.041-0.078-0.08-0.127-0.109l0.012-0.035
				c0.008-0.021-0.004-0.047-0.026-0.055l-0.172-0.062c-0.023-0.006-0.046,0.006-0.055,0.027l-0.017,0.045
				c-0.046-0.004-0.093,0-0.137,0.01l-0.023-0.049c-0.009-0.021-0.035-0.031-0.057-0.021l-0.166,0.072
				c-0.021,0.012-0.031,0.035-0.021,0.057l0.028,0.061c-0.036,0.029-0.067,0.066-0.095,0.107l-0.066-0.025
				C81.314,67.584,81.29,67.596,81.282,67.617z M81.581,67.811c0.053-0.146,0.217-0.223,0.365-0.172
				c0.15,0.055,0.226,0.217,0.175,0.363c-0.054,0.146-0.217,0.223-0.366,0.17C81.605,68.119,81.527,67.957,81.581,67.811z"/>
			<path id="XMLID_1822_" fill="#FFFFFF" d="M85.161,70.455l-0.078,0.213c-0.009,0.027,0.006,0.061,0.033,0.068l0.091,0.033
				c-0.004,0.049-0.001,0.1,0.006,0.148l-0.087,0.039C85.1,70.969,85.087,71,85.1,71.027l0.095,0.207
				c0.013,0.027,0.045,0.041,0.072,0.025l0.082-0.035c0.036,0.047,0.08,0.09,0.129,0.125l-0.028,0.078
				c-0.011,0.029,0.005,0.058,0.032,0.07l0.217,0.076c0.029,0.01,0.06-0.004,0.069-0.033l0.023-0.064
				c0.059,0.008,0.116,0.008,0.173,0.002l0.025,0.055c0.013,0.027,0.045,0.039,0.072,0.027l0.209-0.094
				c0.027-0.01,0.04-0.043,0.026-0.068l-0.02-0.045c0.057-0.041,0.107-0.092,0.149-0.15l0.039,0.016
				c0.027,0.01,0.059-0.006,0.068-0.033l0.076-0.213c0.01-0.027-0.004-0.059-0.032-0.068l-0.033-0.014
				c0.007-0.064,0.003-0.129-0.008-0.191l0.032-0.014c0.027-0.012,0.038-0.045,0.027-0.072L86.5,70.406
				c-0.013-0.027-0.044-0.039-0.071-0.027l-0.037,0.018c-0.045-0.055-0.1-0.102-0.161-0.141l0.015-0.043
				c0.01-0.025-0.004-0.059-0.033-0.068l-0.215-0.076c-0.029-0.012-0.061,0.004-0.069,0.031l-0.021,0.057
				c-0.059-0.004-0.117,0.002-0.174,0.014l-0.028-0.062c-0.013-0.027-0.045-0.039-0.071-0.027l-0.209,0.094
				c-0.027,0.014-0.04,0.043-0.027,0.068l0.035,0.076c-0.045,0.039-0.086,0.084-0.119,0.135l-0.084-0.029
				C85.2,70.414,85.171,70.428,85.161,70.455z M85.536,70.697c0.066-0.186,0.273-0.281,0.461-0.213
				c0.188,0.066,0.286,0.27,0.221,0.455c-0.067,0.186-0.273,0.281-0.461,0.215C85.567,71.088,85.47,70.883,85.536,70.697z"/>
			<path id="XMLID_1819_" fill="#FFFFFF" d="M80.708,71.213l-0.077,0.213c-0.009,0.025,0.005,0.059,0.033,0.068l0.091,0.031
				c-0.004,0.049-0.002,0.102,0.006,0.148l-0.087,0.039c-0.027,0.014-0.039,0.043-0.026,0.07l0.096,0.209
				c0.012,0.025,0.044,0.039,0.071,0.025l0.081-0.037c0.037,0.047,0.08,0.088,0.129,0.125l-0.028,0.078
				c-0.009,0.027,0.006,0.059,0.034,0.07l0.216,0.076c0.028,0.01,0.06-0.004,0.068-0.031l0.025-0.066
				c0.058,0.008,0.116,0.01,0.173,0.002l0.026,0.057c0.012,0.025,0.044,0.037,0.07,0.025l0.21-0.092
				c0.026-0.014,0.039-0.045,0.026-0.07l-0.02-0.045c0.057-0.041,0.107-0.092,0.148-0.148l0.04,0.014
				c0.027,0.01,0.059-0.006,0.067-0.033l0.078-0.213c0.01-0.029-0.006-0.059-0.033-0.066l-0.033-0.014
				c0.007-0.066,0.004-0.131-0.008-0.193l0.031-0.014c0.027-0.012,0.039-0.045,0.027-0.072l-0.096-0.205
				c-0.012-0.027-0.044-0.041-0.071-0.027l-0.037,0.018c-0.046-0.057-0.1-0.104-0.161-0.141l0.016-0.043
				c0.01-0.029-0.005-0.061-0.033-0.07l-0.217-0.076c-0.028-0.01-0.059,0.004-0.068,0.031l-0.021,0.057
				c-0.06-0.002-0.117,0.002-0.175,0.014l-0.027-0.062c-0.014-0.027-0.045-0.039-0.072-0.027l-0.209,0.094
				c-0.027,0.012-0.039,0.043-0.027,0.07l0.035,0.074c-0.045,0.041-0.084,0.084-0.118,0.137l-0.084-0.031
				C80.749,71.17,80.718,71.184,80.708,71.213z M81.085,71.453c0.066-0.186,0.273-0.279,0.46-0.213
				c0.188,0.066,0.286,0.271,0.22,0.455c-0.066,0.186-0.272,0.281-0.461,0.215S81.019,71.639,81.085,71.453z"/>
			<path id="XMLID_1816_" fill="#333333" d="M82.597,66.914l-0.051,0.141c-0.006,0.02,0.004,0.039,0.023,0.045l0.059,0.021
				c-0.003,0.031-0.002,0.066,0.004,0.098l-0.058,0.025c-0.018,0.008-0.024,0.029-0.018,0.045l0.063,0.139
				c0.008,0.017,0.029,0.025,0.047,0.016l0.054-0.023c0.024,0.031,0.054,0.061,0.085,0.082l-0.02,0.053
				c-0.006,0.018,0.004,0.039,0.022,0.043l0.144,0.053c0.018,0.006,0.037-0.002,0.045-0.021l0.015-0.043
				c0.039,0.006,0.076,0.006,0.114,0.002l0.018,0.037c0.008,0.018,0.029,0.023,0.047,0.018l0.138-0.062
				c0.019-0.008,0.025-0.029,0.017-0.047l-0.012-0.027c0.037-0.027,0.07-0.061,0.098-0.1l0.025,0.01
				c0.018,0.006,0.039-0.004,0.045-0.02l0.051-0.143c0.006-0.018-0.003-0.037-0.021-0.045l-0.022-0.008
				c0.004-0.041,0.002-0.086-0.006-0.127l0.021-0.01c0.018-0.008,0.025-0.027,0.018-0.045l-0.062-0.139
				c-0.009-0.016-0.029-0.025-0.047-0.016l-0.025,0.01c-0.029-0.035-0.064-0.066-0.106-0.092l0.011-0.029
				c0.007-0.018-0.004-0.037-0.021-0.045l-0.143-0.051c-0.02-0.006-0.039,0.004-0.046,0.021l-0.014,0.037
				c-0.038-0.002-0.076,0-0.113,0.01l-0.02-0.041c-0.007-0.018-0.028-0.025-0.047-0.018l-0.138,0.061
				c-0.018,0.008-0.025,0.027-0.018,0.047l0.024,0.049c-0.03,0.025-0.056,0.055-0.078,0.088l-0.056-0.02
				C82.624,66.887,82.604,66.896,82.597,66.914z M82.845,67.074c0.044-0.121,0.18-0.186,0.303-0.141
				c0.123,0.043,0.189,0.178,0.145,0.301c-0.043,0.121-0.179,0.184-0.303,0.139C82.865,67.33,82.801,67.197,82.845,67.074z"/>
			<path id="XMLID_1813_" fill="#333333" d="M98.091,71.215l-0.064,0.178c-0.008,0.023,0.004,0.049,0.027,0.057l0.075,0.029
				c-0.003,0.041-0.001,0.082,0.005,0.123l-0.072,0.033c-0.021,0.01-0.031,0.035-0.021,0.059l0.079,0.174
				c0.01,0.021,0.037,0.031,0.06,0.021l0.068-0.031c0.031,0.039,0.067,0.074,0.107,0.104l-0.023,0.066
				c-0.008,0.023,0.004,0.049,0.027,0.057l0.182,0.066c0.023,0.008,0.049-0.006,0.059-0.027l0.019-0.055
				c0.049,0.006,0.097,0.006,0.145,0l0.022,0.047c0.01,0.023,0.037,0.033,0.059,0.023l0.176-0.078
				c0.022-0.01,0.032-0.037,0.022-0.059l-0.017-0.037c0.047-0.033,0.089-0.074,0.125-0.125l0.031,0.012
				c0.023,0.008,0.05-0.004,0.059-0.025l0.064-0.18c0.008-0.021-0.004-0.049-0.027-0.057l-0.029-0.01
				c0.007-0.055,0.004-0.109-0.007-0.16l0.027-0.014c0.023-0.01,0.032-0.037,0.022-0.059l-0.08-0.174
				c-0.01-0.021-0.037-0.033-0.06-0.021l-0.03,0.012c-0.039-0.045-0.084-0.084-0.135-0.115l0.013-0.035
				c0.009-0.023-0.004-0.049-0.028-0.059l-0.181-0.064c-0.024-0.008-0.05,0.004-0.058,0.025l-0.017,0.049
				c-0.049-0.004-0.098,0.002-0.145,0.012l-0.023-0.051c-0.011-0.023-0.037-0.035-0.061-0.023l-0.174,0.076
				c-0.023,0.012-0.033,0.037-0.022,0.059l0.028,0.064c-0.037,0.033-0.07,0.07-0.099,0.111l-0.07-0.025
				C98.124,71.18,98.099,71.191,98.091,71.215z M98.405,71.418c0.055-0.156,0.226-0.234,0.385-0.18
				c0.157,0.057,0.238,0.227,0.184,0.381c-0.057,0.154-0.229,0.236-0.385,0.18C98.431,71.742,98.35,71.572,98.405,71.418z"/>
			<path id="XMLID_1810_" fill="#FFFFFF" d="M88.129,72.977l-0.182,0.504c-0.023,0.064,0.011,0.135,0.077,0.158l0.213,0.076
				c-0.01,0.117-0.004,0.236,0.015,0.352l-0.205,0.09c-0.064,0.027-0.093,0.104-0.062,0.164l0.225,0.49
				c0.028,0.064,0.104,0.092,0.169,0.062l0.191-0.084c0.086,0.107,0.188,0.207,0.305,0.291l-0.066,0.186
				c-0.023,0.064,0.01,0.137,0.076,0.16l0.51,0.182c0.066,0.023,0.14-0.01,0.162-0.076l0.057-0.152
				c0.137,0.02,0.272,0.02,0.406,0.004l0.061,0.129c0.029,0.064,0.104,0.094,0.168,0.064l0.493-0.219
				c0.063-0.027,0.093-0.102,0.063-0.164l-0.048-0.102c0.134-0.098,0.253-0.217,0.35-0.354l0.092,0.033
				c0.067,0.021,0.139-0.012,0.163-0.076l0.182-0.502c0.022-0.064-0.012-0.139-0.078-0.16l-0.078-0.029
				c0.016-0.154,0.008-0.307-0.02-0.455l0.075-0.033c0.063-0.027,0.093-0.104,0.063-0.166l-0.225-0.488
				c-0.029-0.062-0.106-0.09-0.168-0.062l-0.088,0.039c-0.105-0.127-0.233-0.238-0.381-0.328l0.039-0.104
				c0.021-0.065-0.012-0.137-0.078-0.16l-0.51-0.182c-0.066-0.023-0.139,0.01-0.162,0.074l-0.049,0.133
				c-0.138-0.006-0.275,0.006-0.408,0.033l-0.066-0.146c-0.029-0.062-0.104-0.092-0.168-0.062l-0.493,0.217
				c-0.063,0.029-0.093,0.104-0.062,0.166l0.081,0.178c-0.105,0.09-0.199,0.197-0.277,0.316L88.29,72.9
				C88.224,72.877,88.151,72.91,88.129,72.977z M89.013,73.545c0.156-0.434,0.643-0.66,1.085-0.502
				c0.44,0.158,0.673,0.639,0.517,1.074c-0.157,0.436-0.643,0.662-1.085,0.504C89.088,74.463,88.855,73.982,89.013,73.545z"/>
		</g>
		<g id="XMLID_1806_">
			<path id="XMLID_1808_" fill="#FFFFFF" d="M122.737,94.375c-1.671,0-3.027,1.355-3.027,3.025c0-1.67-1.354-3.025-3.026-3.025
				c1.673,0,3.026-1.357,3.026-3.025C119.71,93.018,121.066,94.375,122.737,94.375z"/>
			<circle id="XMLID_1807_" fill="#FFFFFF" cx="124.75" cy="91.525" r="1.446"/>
		</g>
		<g id="XMLID_1803_">
			<path id="XMLID_1805_" fill="#FFFFFF" d="M56.714,97.635c0,1.371,1.113,2.484,2.48,2.484c-1.367,0-2.48,1.111-2.48,2.48
				c0-1.369-1.114-2.48-2.482-2.48C55.6,100.119,56.714,99.006,56.714,97.635z"/>
			<path id="XMLID_1804_" fill="#FFFFFF" d="M54.376,94.799c0,0.654,0.531,1.186,1.186,1.186c-0.654,0-1.186,0.531-1.186,1.186
				c0-0.654-0.531-1.186-1.186-1.186C53.845,95.984,54.376,95.453,54.376,94.799z"/>
		</g>
		<g id="XMLID_1800_">
			<path id="XMLID_1802_" fill="#FFFFFF" d="M62.03,83.301c-0.656-0.656-1.723-0.656-2.378-0.002
				c0.655-0.654,0.656-1.721-0.001-2.379c0.657,0.658,1.724,0.656,2.379,0C61.375,81.576,61.374,82.645,62.03,83.301z"/>
			<path id="XMLID_1801_" fill="#FFFFFF" d="M64.509,83.541c-0.313-0.316-0.822-0.316-1.135-0.002c0.312-0.314,0.312-0.822,0-1.137
				c0.312,0.314,0.822,0.314,1.135,0C64.196,82.717,64.195,83.225,64.509,83.541z"/>
		</g>
		<g id="XMLID_1797_">
			<path id="XMLID_1799_" fill="#FFFFFF" d="M73.584,64.871c0,0.93,0.753,1.684,1.681,1.684c-0.928,0-1.681,0.752-1.681,1.684
				c0-0.932-0.755-1.684-1.683-1.684C72.829,66.555,73.584,65.801,73.584,64.871z"/>
			<path id="XMLID_1798_" fill="#FFFFFF" d="M72,62.949c0,0.445,0.36,0.805,0.804,0.805c-0.443,0-0.804,0.359-0.804,0.803
				c0-0.443-0.361-0.803-0.804-0.803C71.639,63.754,72,63.395,72,62.949z"/>
		</g>
		<g id="XMLID_1792_">
			<path id="XMLID_1795_" fill="#FFFFFF" d="M114.288,118.006c0,0.93,0.754,1.682,1.682,1.682c-0.928,0-1.682,0.754-1.682,1.684
				c0-0.93-0.754-1.684-1.682-1.684C113.534,119.688,114.288,118.936,114.288,118.006z"/>
			<path id="XMLID_1793_" fill="#FFFFFF" d="M112.705,116.084c0,0.443,0.359,0.805,0.802,0.805c-0.442,0-0.802,0.357-0.802,0.803
				c0-0.445-0.36-0.803-0.804-0.803C112.345,116.889,112.705,116.527,112.705,116.084z"/>
		</g>
		<g id="XMLID_1788_">
			<path id="XMLID_1791_" fill="#FFFFFF" d="M85.03,55.584c0,0.746,0.605,1.354,1.351,1.354c-0.745,0-1.351,0.604-1.351,1.35
				c0-0.746-0.607-1.35-1.352-1.35C84.424,56.938,85.03,56.33,85.03,55.584z"/>
			<path id="XMLID_1790_" fill="#FFFFFF" d="M83.759,54.039c0,0.357,0.289,0.646,0.645,0.646c-0.356,0-0.645,0.289-0.645,0.646
				c0-0.357-0.29-0.646-0.646-0.646C83.469,54.686,83.759,54.396,83.759,54.039z"/>
			<path id="XMLID_1789_" fill="#FFFFFF" d="M86.645,54.939c0,0.355,0.289,0.645,0.645,0.645c-0.355,0-0.645,0.289-0.645,0.645
				c0-0.355-0.291-0.645-0.646-0.645C86.354,55.584,86.645,55.295,86.645,54.939z"/>
		</g>
	</g>
</g>
</svg>
